<?xml version="1.0" encoding="utf-8" ?>
<svg baseProfile="full" height="64" version="1.1" width="64" xmlns="http://www.w3.org/2000/svg" xmlns:ev="http://www.w3.org/2001/xml-events" xmlns:xlink="http://www.w3.org/1999/xlink"><defs /><path d="M 23.00,11.50 L 22.00,11.50 L 21.00,11.50 L 20.00,11.50 L 19.00,11.50 L 18.00,11.50 L 17.00,11.50 L 16.00,11.50 L 15.00,11.50 L 14.00,11.50 L 13.00,11.50 L 12.00,11.50 L 11.50,11.00 L 11.50,10.00 L 11.50,9.00 L 11.50,8.00 L 11.50,7.00 L 11.50,6.00 L 11.50,5.00 L 11.50,4.00 L 12.00,3.50 L 13.00,3.50 L 14.00,3.50 L 15.00,3.50 L 15.50,4.00 L 15.50,5.00 L 15.50,6.00 L 15.50,7.00 L 16.00,7.50 L 17.00,7.50 L 18.00,7.50 L 19.00,7.50 L 19.50,7.00 L 19.50,6.00 L 19.50,5.00 L 19.50,4.00 L 20.00,3.50 L 21.00,3.50 L 22.00,3.50 L 23.00,3.50 L 23.50,4.00 L 23.50,5.00 L 23.50,6.00 L 23.50,7.00 L 23.50,8.00 L 23.50,9.00 L 23.50,10.00 L 23.50,11.00 L 23.00,11.50 Z" fill="rgb(198,199,198)" stroke="none" /><path d="M 19.00,7.50 L 18.00,7.50 L 17.00,7.50 L 16.00,7.50 L 15.50,7.00 L 15.50,6.00 L 15.50,5.00 L 15.50,4.00 L 16.00,3.50 L 17.00,3.50 L 18.00,3.50 L 19.00,3.50 L 19.50,4.00 L 19.50,5.00 L 19.50,6.00 L 19.50,7.00 L 19.00,7.50 Z" fill="rgb(255,0,0)" stroke="none" /><path d="M 27.00,7.50 L 26.00,7.50 L 25.00,7.50 L 24.00,7.50 L 23.50,7.00 L 23.50,6.00 L 23.50,5.00 L 23.50,4.00 L 24.00,3.50 L 25.00,3.50 L 26.00,3.50 L 27.00,3.50 L 27.50,4.00 L 27.50,5.00 L 27.50,6.00 L 27.50,7.00 L 27.00,7.50 Z" fill="rgb(255,0,0)" stroke="none" /><path d="M 33.00,11.50 L 32.00,11.50 L 31.00,11.50 L 30.00,11.50 L 29.00,11.50 L 28.00,11.50 L 27.00,11.50 L 26.00,11.50 L 25.00,11.50 L 24.00,11.50 L 23.50,11.00 L 23.50,10.00 L 23.50,9.00 L 23.50,8.00 L 24.00,7.50 L 25.00,7.50 L 26.00,7.50 L 27.00,7.50 L 27.50,7.00 L 27.50,6.00 L 27.50,5.00 L 27.50,4.00 L 28.00,3.50 L 29.00,3.50 L 30.00,3.50 L 31.00,3.50 L 31.50,4.00 L 31.50,5.00 L 31.50,6.00 L 31.50,7.00 L 32.00,7.50 L 33.00,7.50 L 33.50,8.00 L 33.50,9.00 L 33.50,10.00 L 33.50,11.00 L 33.00,11.50 Z" fill="rgb(198,199,198)" stroke="none" /><path d="M 35.00,7.50 L 34.00,7.50 L 33.00,7.50 L 32.00,7.50 L 31.50,7.00 L 31.50,6.00 L 31.50,5.00 L 31.50,4.00 L 32.00,3.50 L 33.00,3.50 L 34.00,3.50 L 35.00,3.50 L 35.50,4.00 L 35.50,5.00 L 35.50,6.00 L 35.50,7.00 L 35.00,7.50 Z" fill="rgb(255,0,0)" stroke="none" /><path d="M 42.00,11.50 L 41.00,11.50 L 40.00,11.50 L 39.00,11.50 L 38.00,11.50 L 37.00,11.50 L 36.00,11.50 L 35.00,11.50 L 34.00,11.50 L 33.50,11.00 L 33.50,10.00 L 33.50,9.00 L 33.50,8.00 L 34.00,7.50 L 35.00,7.50 L 35.50,7.00 L 35.50,6.00 L 35.50,5.00 L 35.50,4.00 L 36.00,3.50 L 37.00,3.50 L 38.00,3.50 L 39.00,3.50 L 39.50,4.00 L 39.50,5.00 L 39.50,6.00 L 39.50,7.00 L 40.00,7.50 L 41.00,7.50 L 42.00,7.50 L 42.50,8.00 L 42.50,9.00 L 42.50,10.00 L 42.50,11.00 L 42.00,11.50 Z" fill="rgb(198,199,198)" stroke="none" /><path d="M 43.00,7.50 L 42.00,7.50 L 41.00,7.50 L 40.00,7.50 L 39.50,7.00 L 39.50,6.00 L 39.50,5.00 L 39.50,4.00 L 40.00,3.50 L 41.00,3.50 L 42.00,3.50 L 43.00,3.50 L 43.50,4.00 L 43.50,5.00 L 43.50,6.00 L 43.50,7.00 L 43.00,7.50 Z" fill="rgb(255,0,0)" stroke="none" /><path d="M 50.00,11.50 L 49.00,11.50 L 48.00,11.50 L 47.00,11.50 L 46.00,11.50 L 45.00,11.50 L 44.00,11.50 L 43.00,11.50 L 42.50,11.00 L 42.50,10.00 L 42.50,9.00 L 42.50,8.00 L 43.00,7.50 L 43.50,7.00 L 43.50,6.00 L 43.50,5.00 L 43.50,4.00 L 44.00,3.50 L 45.00,3.50 L 46.00,3.50 L 47.00,3.50 L 47.50,4.00 L 47.50,5.00 L 47.50,6.00 L 47.50,7.00 L 48.00,7.50 L 49.00,7.50 L 50.00,7.50 L 50.50,8.00 L 50.50,9.00 L 50.50,10.00 L 50.50,11.00 L 50.00,11.50 Z" fill="rgb(198,199,198)" stroke="none" /><path d="M 51.00,7.50 L 50.00,7.50 L 49.00,7.50 L 48.00,7.50 L 47.50,7.00 L 47.50,6.00 L 47.50,5.00 L 47.50,4.00 L 48.00,3.50 L 49.00,3.50 L 50.00,3.50 L 51.00,3.50 L 51.50,4.00 L 51.50,5.00 L 51.50,6.00 L 51.50,7.00 L 51.00,7.50 Z" fill="rgb(255,0,0)" stroke="none" /><path d="M 59.00,11.50 L 58.00,11.50 L 57.00,11.50 L 56.00,11.50 L 55.00,11.50 L 54.00,11.50 L 53.00,11.50 L 52.00,11.50 L 51.00,11.50 L 50.50,11.00 L 50.50,10.00 L 50.50,9.00 L 50.50,8.00 L 51.00,7.50 L 51.50,7.00 L 51.50,6.00 L 51.50,5.00 L 51.50,4.00 L 52.00,3.50 L 53.00,3.50 L 54.00,3.50 L 55.00,3.50 L 55.50,4.00 L 55.50,5.00 L 55.50,6.00 L 55.50,7.00 L 56.00,7.50 L 57.00,7.50 L 58.00,7.50 L 59.00,7.50 L 59.50,8.00 L 59.50,9.00 L 59.50,10.00 L 59.50,11.00 L 59.00,11.50 Z" fill="rgb(198,199,198)" stroke="none" /><path d="M 59.00,7.50 L 58.00,7.50 L 57.00,7.50 L 56.00,7.50 L 55.50,7.00 L 55.50,6.00 L 55.50,5.00 L 55.50,4.00 L 56.00,3.50 L 57.00,3.50 L 58.00,3.50 L 59.00,3.50 L 59.50,4.00 L 59.50,5.00 L 59.50,6.00 L 59.50,7.00 L 59.00,7.50 Z" fill="rgb(255,0,0)" stroke="none" /><path d="M 63.00,11.50 L 62.00,11.50 L 61.00,11.50 L 60.00,11.50 L 59.50,11.00 L 59.50,10.00 L 59.50,9.00 L 59.50,8.00 L 59.50,7.00 L 59.50,6.00 L 59.50,5.00 L 59.50,4.00 L 60.00,3.50 L 61.00,3.50 L 62.00,3.50 L 63.00,3.50 Z" fill="rgb(0,0,0)" stroke="none" /><path d="M 17.00,15.50 L 16.00,15.50 L 15.00,15.50 L 14.00,15.50 L 13.00,15.50 L 12.00,15.50 L 11.00,15.50 L 10.00,15.50 L 9.00,15.50 L 8.00,15.50 L 7.50,15.00 L 7.50,14.00 L 7.50,13.00 L 7.50,12.00 L 8.00,11.50 L 9.00,11.50 L 10.00,11.50 L 11.00,11.50 L 12.00,11.50 L 13.00,11.50 L 14.00,11.50 L 15.00,11.50 L 16.00,11.50 L 17.00,11.50 L 17.50,12.00 L 17.50,13.00 L 17.50,14.00 L 17.50,15.00 L 17.00,15.50 Z" fill="rgb(132,134,132)" stroke="none" /><path d="M 27.00,15.50 L 26.00,15.50 L 25.00,15.50 L 24.00,15.50 L 23.00,15.50 L 22.00,15.50 L 21.00,15.50 L 20.00,15.50 L 19.00,15.50 L 18.00,15.50 L 17.50,15.00 L 17.50,14.00 L 17.50,13.00 L 17.50,12.00 L 18.00,11.50 L 19.00,11.50 L 20.00,11.50 L 21.00,11.50 L 22.00,11.50 L 23.00,11.50 L 24.00,11.50 L 25.00,11.50 L 26.00,11.50 L 27.00,11.50 L 27.50,12.00 L 27.50,13.00 L 27.50,14.00 L 27.50,15.00 L 27.00,15.50 Z" fill="rgb(132,134,132)" stroke="none" /><path d="M 35.00,15.50 L 34.00,15.50 L 33.00,15.50 L 32.00,15.50 L 31.00,15.50 L 30.00,15.50 L 29.00,15.50 L 28.00,15.50 L 27.50,15.00 L 27.50,14.00 L 27.50,13.00 L 27.50,12.00 L 28.00,11.50 L 29.00,11.50 L 30.00,11.50 L 31.00,11.50 L 32.00,11.50 L 33.00,11.50 L 34.00,11.50 L 35.00,11.50 L 35.50,12.00 L 35.50,13.00 L 35.50,14.00 L 35.50,15.00 L 35.00,15.50 Z" fill="rgb(132,134,132)" stroke="none" /><path d="M 45.00,15.50 L 44.00,15.50 L 43.00,15.50 L 42.00,15.50 L 41.00,15.50 L 40.00,15.50 L 39.00,15.50 L 38.00,15.50 L 37.00,15.50 L 36.00,15.50 L 35.50,15.00 L 35.50,14.00 L 35.50,13.00 L 35.50,12.00 L 36.00,11.50 L 37.00,11.50 L 38.00,11.50 L 39.00,11.50 L 40.00,11.50 L 41.00,11.50 L 42.00,11.50 L 43.00,11.50 L 44.00,11.50 L 45.00,11.50 L 45.50,12.00 L 45.50,13.00 L 45.50,14.00 L 45.50,15.00 L 45.00,15.50 Z" fill="rgb(132,134,132)" stroke="none" /><path d="M 55.00,15.50 L 54.00,15.50 L 53.00,15.50 L 52.00,15.50 L 51.00,15.50 L 50.00,15.50 L 49.00,15.50 L 48.00,15.50 L 47.00,15.50 L 46.00,15.50 L 45.50,15.00 L 45.50,14.00 L 45.50,13.00 L 45.50,12.00 L 46.00,11.50 L 47.00,11.50 L 48.00,11.50 L 49.00,11.50 L 50.00,11.50 L 51.00,11.50 L 52.00,11.50 L 53.00,11.50 L 54.00,11.50 L 55.00,11.50 L 55.50,12.00 L 55.50,13.00 L 55.50,14.00 L 55.50,15.00 L 55.00,15.50 Z" fill="rgb(132,134,132)" stroke="none" /><path d="M 59.00,15.50 L 58.00,15.50 L 57.00,15.50 L 56.00,15.50 L 55.50,15.00 L 55.50,14.00 L 55.50,13.00 L 55.50,12.00 L 56.00,11.50 L 57.00,11.50 L 58.00,11.50 L 59.00,11.50 L 59.50,12.00 L 59.50,13.00 L 59.50,14.00 L 59.50,15.00 L 59.00,15.50 Z" fill="rgb(0,0,0)" stroke="none" /><path d="M 63.00,19.50 L 62.00,19.50 L 61.00,19.50 L 60.00,19.50 L 59.50,19.00 L 59.50,18.00 L 59.50,17.00 L 59.50,16.00 L 59.50,15.00 L 59.50,14.00 L 59.50,13.00 L 59.50,12.00 L 60.00,11.50 L 61.00,11.50 L 62.00,11.50 L 63.00,11.50 Z" fill="rgb(132,134,132)" stroke="none" /><path d="M 9.00,23.50 L 8.00,23.50 L 7.00,23.50 L 6.00,23.50 L 5.00,23.50 L 4.00,23.50 L 3.50,23.00 L 3.50,22.00 L 3.50,21.00 L 3.50,20.00 L 3.50,19.00 L 3.50,18.00 L 3.50,17.00 L 3.50,16.00 L 4.00,15.50 L 5.00,15.50 L 6.00,15.50 L 7.00,15.50 L 8.00,15.50 L 9.00,15.50 L 9.50,16.00 L 9.50,17.00 L 9.50,18.00 L 9.50,19.00 L 9.50,20.00 L 9.50,21.00 L 9.50,22.00 L 9.50,23.00 L 9.00,23.50 Z" fill="rgb(198,199,198)" stroke="none" /><path d="M 16.00,23.50 L 15.00,23.50 L 14.00,23.50 L 13.00,23.50 L 12.00,23.50 L 11.00,23.50 L 10.00,23.50 L 9.50,23.00 L 9.50,22.00 L 9.50,21.00 L 9.50,20.00 L 9.50,19.00 L 9.50,18.00 L 9.50,17.00 L 9.50,16.00 L 10.00,15.50 L 11.00,15.50 L 12.00,15.50 L 13.00,15.50 L 14.00,15.50 L 15.00,15.50 L 16.00,15.50 L 16.50,16.00 L 16.50,17.00 L 16.50,18.00 L 16.50,19.00 L 16.50,20.00 L 16.50,21.00 L 16.50,22.00 L 16.50,23.00 L 16.00,23.50 Z" fill="rgb(198,199,198)" stroke="none" /><path d="M 23.00,23.50 L 22.00,23.50 L 21.00,23.50 L 20.00,23.50 L 19.00,23.50 L 18.00,23.50 L 17.00,23.50 L 16.50,23.00 L 16.50,22.00 L 16.50,21.00 L 16.50,20.00 L 16.50,19.00 L 16.50,18.00 L 16.50,17.00 L 16.50,16.00 L 17.00,15.50 L 18.00,15.50 L 19.00,15.50 L 20.00,15.50 L 21.00,15.50 L 22.00,15.50 L 23.00,15.50 L 23.50,16.00 L 23.50,17.00 L 23.50,18.00 L 23.50,19.00 L 23.50,20.00 L 23.50,21.00 L 23.50,22.00 L 23.50,23.00 L 23.00,23.50 Z" fill="rgb(198,199,198)" stroke="none" /><path d="M 31.00,23.50 L 30.00,23.50 L 29.00,23.50 L 28.00,23.50 L 27.00,23.50 L 26.00,23.50 L 25.00,23.50 L 24.00,23.50 L 23.50,23.00 L 23.50,22.00 L 23.50,21.00 L 23.50,20.00 L 23.50,19.00 L 23.50,18.00 L 23.50,17.00 L 23.50,16.00 L 24.00,15.50 L 25.00,15.50 L 26.00,15.50 L 27.00,15.50 L 28.00,15.50 L 29.00,15.50 L 30.00,15.50 L 31.00,15.50 L 31.50,16.00 L 31.50,17.00 L 31.50,18.00 L 31.50,19.00 L 31.50,20.00 L 31.50,21.00 L 31.50,22.00 L 31.50,23.00 L 31.00,23.50 Z" fill="rgb(198,199,198)" stroke="none" /><path d="M 38.00,23.50 L 37.00,23.50 L 36.00,23.50 L 35.00,23.50 L 34.00,23.50 L 33.00,23.50 L 32.00,23.50 L 31.50,23.00 L 31.50,22.00 L 31.50,21.00 L 31.50,20.00 L 31.50,19.00 L 31.50,18.00 L 31.50,17.00 L 31.50,16.00 L 32.00,15.50 L 33.00,15.50 L 34.00,15.50 L 35.00,15.50 L 36.00,15.50 L 37.00,15.50 L 38.00,15.50 L 38.50,16.00 L 38.50,17.00 L 38.50,18.00 L 38.50,19.00 L 38.50,20.00 L 38.50,21.00 L 38.50,22.00 L 38.50,23.00 L 38.00,23.50 Z" fill="rgb(198,199,198)" stroke="none" /><path d="M 43.00,23.50 L 42.00,23.50 L 41.00,23.50 L 40.00,23.50 L 39.00,23.50 L 38.50,23.00 L 38.50,22.00 L 38.50,21.00 L 38.50,20.00 L 38.50,19.00 L 38.50,18.00 L 38.50,17.00 L 38.50,16.00 L 39.00,15.50 L 40.00,15.50 L 41.00,15.50 L 42.00,15.50 L 43.00,15.50 L 43.50,16.00 L 43.50,17.00 L 44.00,17.50 L 44.50,18.00 L 44.50,19.00 L 44.00,19.50 L 43.50,20.00 L 43.50,21.00 L 43.50,22.00 L 43.50,23.00 L 43.00,23.50 Z" fill="rgb(198,199,198)" stroke="none" /><path d="M 50.00,19.50 L 49.00,19.50 L 48.00,19.50 L 47.00,19.50 L 46.00,19.50 L 45.00,19.50 L 44.50,19.00 L 44.50,18.00 L 44.00,17.50 L 43.50,17.00 L 43.50,16.00 L 44.00,15.50 L 45.00,15.50 L 46.00,15.50 L 47.00,15.50 L 48.00,15.50 L 49.00,15.50 L 50.00,15.50 L 51.00,15.50 L 51.50,16.00 L 51.00,16.50 L 50.50,17.00 L 50.50,18.00 L 50.50,19.00 L 50.00,19.50 Z" fill="rgb(198,199,198)" stroke="none" /><path d="M 55.00,23.50 L 54.00,23.50 L 53.00,23.50 L 52.00,23.50 L 51.50,23.00 L 51.50,22.00 L 51.50,21.00 L 51.50,20.00 L 51.00,19.50 L 50.50,19.00 L 50.50,18.00 L 50.50,17.00 L 51.00,16.50 L 51.50,16.00 L 52.00,15.50 L 53.00,15.50 L 54.00,15.50 L 55.00,15.50 L 55.50,16.00 L 55.50,17.00 L 55.50,18.00 L 55.50,19.00 L 55.50,20.00 L 55.50,21.00 L 55.50,22.00 L 55.50,23.00 L 55.00,23.50 Z" fill="rgb(198,199,198)" stroke="none" /><path d="M 59.00,28.50 L 58.00,28.50 L 57.00,28.50 L 56.00,28.50 L 55.50,28.00 L 55.50,27.00 L 55.50,26.00 L 55.50,25.00 L 55.50,24.00 L 55.50,23.00 L 55.50,22.00 L 55.50,21.00 L 55.50,20.00 L 55.50,19.00 L 55.50,18.00 L 55.50,17.00 L 55.50,16.00 L 56.00,15.50 L 57.00,15.50 L 58.00,15.50 L 59.00,15.50 L 59.50,16.00 L 59.50,17.00 L 59.50,18.00 L 59.50,19.00 L 59.50,20.00 L 59.50,21.00 L 59.50,22.00 L 59.50,23.00 L 59.50,24.00 L 59.50,25.00 L 59.50,26.00 L 59.50,27.00 L 59.50,28.00 L 59.00,28.50 Z" fill="rgb(0,0,0)" stroke="none" /><path d="M 51.00,23.50 L 50.00,23.50 L 49.00,23.50 L 48.00,23.50 L 47.00,23.50 L 46.00,23.50 L 45.00,23.50 L 44.00,23.50 L 43.50,23.00 L 43.50,22.00 L 43.50,21.00 L 43.50,20.00 L 44.00,19.50 L 45.00,19.50 L 46.00,19.50 L 47.00,19.50 L 48.00,19.50 L 49.00,19.50 L 50.00,19.50 L 51.00,19.50 L 51.50,20.00 L 51.50,21.00 L 51.50,22.00 L 51.50,23.00 L 51.00,23.50 Z" fill="rgb(0,0,0)" stroke="none" /><path d="M 63.00,26.50 L 62.00,26.50 L 61.00,26.50 L 60.00,26.50 L 59.50,26.00 L 59.50,25.00 L 59.50,24.00 L 59.50,23.00 L 59.50,22.00 L 59.50,21.00 L 59.50,20.00 L 60.00,19.50 L 61.00,19.50 L 62.00,19.50 L 63.00,19.50 Z" fill="rgb(132,134,132)" stroke="none" /><path d="M 19.00,27.50 L 18.00,27.50 L 17.00,27.50 L 16.00,27.50 L 15.00,27.50 L 14.00,27.50 L 13.00,27.50 L 12.00,27.50 L 11.00,27.50 L 10.00,27.50 L 9.00,27.50 L 8.00,27.50 L 7.00,27.50 L 6.00,27.50 L 5.00,27.50 L 4.00,27.50 L 3.50,27.00 L 3.50,26.00 L 3.50,25.00 L 3.50,24.00 L 4.00,23.50 L 5.00,23.50 L 6.00,23.50 L 7.00,23.50 L 8.00,23.50 L 9.00,23.50 L 10.00,23.50 L 11.00,23.50 L 12.00,23.50 L 13.00,23.50 L 14.00,23.50 L 15.00,23.50 L 16.00,23.50 L 17.00,23.50 L 18.00,23.50 L 19.00,23.50 L 19.50,24.00 L 19.50,25.00 L 19.50,26.00 L 19.50,27.00 L 19.00,27.50 Z" fill="rgb(0,0,255)" stroke="none" /><path d="M 32.00,27.50 L 31.00,27.50 L 30.00,27.50 L 29.00,27.50 L 28.00,27.50 L 27.00,27.50 L 26.00,27.50 L 25.00,27.50 L 24.00,27.50 L 23.00,27.50 L 22.00,27.50 L 21.00,27.50 L 20.00,27.50 L 19.50,27.00 L 19.50,26.00 L 19.50,25.00 L 19.50,24.00 L 20.00,23.50 L 21.00,23.50 L 22.00,23.50 L 23.00,23.50 L 24.00,23.50 L 25.00,23.50 L 26.00,23.50 L 27.00,23.50 L 28.00,23.50 L 29.00,23.50 L 30.00,23.50 L 31.00,23.50 L 32.00,23.50 L 32.50,24.00 L 32.50,25.00 L 32.50,26.00 L 32.50,27.00 L 32.00,27.50 Z" fill="rgb(0,0,255)" stroke="none" /><path d="M 44.00,27.50 L 43.00,27.50 L 42.00,27.50 L 41.00,27.50 L 40.00,27.50 L 39.00,27.50 L 38.00,27.50 L 37.00,27.50 L 36.00,27.50 L 35.00,27.50 L 34.00,27.50 L 33.00,27.50 L 32.50,27.00 L 32.50,26.00 L 32.50,25.00 L 32.50,24.00 L 33.00,23.50 L 34.00,23.50 L 35.00,23.50 L 36.00,23.50 L 37.00,23.50 L 38.00,23.50 L 39.00,23.50 L 40.00,23.50 L 41.00,23.50 L 42.00,23.50 L 43.00,23.50 L 44.00,23.50 L 44.50,24.00 L 44.50,25.00 L 44.50,26.00 L 44.50,27.00 L 44.00,27.50 Z" fill="rgb(0,0,255)" stroke="none" /><path d="M 55.00,27.50 L 54.00,27.50 L 53.00,27.50 L 52.00,27.50 L 51.00,27.50 L 50.00,27.50 L 49.00,27.50 L 48.00,27.50 L 47.00,27.50 L 46.00,27.50 L 45.00,27.50 L 44.50,27.00 L 44.50,26.00 L 44.50,25.00 L 44.50,24.00 L 45.00,23.50 L 46.00,23.50 L 47.00,23.50 L 48.00,23.50 L 49.00,23.50 L 50.00,23.50 L 51.00,23.50 L 52.00,23.50 L 53.00,23.50 L 54.00,23.50 L 55.00,23.50 L 55.50,24.00 L 55.50,25.00 L 55.50,26.00 L 55.50,27.00 L 55.00,27.50 Z" fill="rgb(0,0,255)" stroke="none" /><path d="M 63.00,32.50 L 62.00,32.50 L 61.00,32.50 L 60.00,32.50 L 59.50,32.00 L 59.50,31.00 L 59.50,30.00 L 59.50,29.00 L 59.50,28.00 L 59.50,27.00 L 60.00,26.50 L 61.00,26.50 L 62.00,26.50 L 63.00,26.50 Z" fill="rgb(132,134,132)" stroke="none" /><path d="M 7.00,33.50 L 6.00,33.50 L 5.00,33.50 L 4.00,33.50 L 3.50,33.00 L 3.50,32.00 L 3.50,31.00 L 3.50,30.00 L 3.50,29.00 L 3.50,28.00 L 4.00,27.50 L 5.00,27.50 L 6.00,27.50 L 7.00,27.50 L 8.00,27.50 L 9.00,27.50 L 10.00,27.50 L 10.50,28.00 L 10.50,29.00 L 10.50,30.00 L 10.50,31.00 L 10.00,31.50 L 9.00,31.50 L 8.00,31.50 L 7.50,32.00 L 7.50,33.00 L 7.00,33.50 Z" fill="rgb(198,199,198)" stroke="none" /><path d="M 17.00,33.50 L 16.00,33.50 L 15.50,33.00 L 15.50,32.00 L 15.00,31.50 L 14.00,31.50 L 13.00,31.50 L 12.00,31.50 L 11.00,31.50 L 10.50,31.00 L 10.50,30.00 L 10.50,29.00 L 10.50,28.00 L 11.00,27.50 L 12.00,27.50 L 13.00,27.50 L 14.00,27.50 L 15.00,27.50 L 16.00,27.50 L 17.00,27.50 L 18.00,27.50 L 18.50,28.00 L 18.50,29.00 L 18.50,30.00 L 18.50,31.00 L 18.50,32.00 L 18.00,32.50 L 17.50,33.00 L 17.00,33.50 Z" fill="rgb(198,199,198)" stroke="none" /><path d="M 22.00,34.50 L 21.50,34.00 L 21.00,33.50 L 20.00,33.50 L 19.50,33.00 L 19.00,32.50 L 18.50,32.00 L 18.50,31.00 L 18.50,30.00 L 18.50,29.00 L 18.50,28.00 L 19.00,27.50 L 20.00,27.50 L 21.00,27.50 L 22.00,27.50 L 23.00,27.50 L 24.00,27.50 L 25.00,27.50 L 26.00,27.50 L 26.50,28.00 L 26.50,29.00 L 26.50,30.00 L 26.50,31.00 L 26.00,31.50 L 25.50,32.00 L 25.00,32.50 L 24.50,33.00 L 24.00,33.50 L 23.00,33.50 L 22.50,34.00 L 22.00,34.50 Z" fill="rgb(198,199,198)" stroke="none" /><path d="M 32.00,33.50 L 31.50,33.00 L 31.50,32.00 L 31.00,31.50 L 30.00,31.50 L 29.00,31.50 L 28.00,31.50 L 27.00,31.50 L 26.50,31.00 L 26.50,30.00 L 26.50,29.00 L 26.50,28.00 L 27.00,27.50 L 28.00,27.50 L 29.00,27.50 L 30.00,27.50 L 31.00,27.50 L 32.00,27.50 L 33.00,27.50 L 34.00,27.50 L 34.50,28.00 L 34.00,28.50 L 33.50,29.00 L 33.50,30.00 L 33.50,31.00 L 33.00,31.50 L 32.50,32.00 L 32.50,33.00 L 32.00,33.50 Z" fill="rgb(198,199,198)" stroke="none" /><path d="M 37.00,35.50 L 36.00,35.50 L 35.00,35.50 L 34.50,35.00 L 34.00,34.50 L 33.00,34.50 L 32.50,34.00 L 32.50,33.00 L 32.50,32.00 L 33.00,31.50 L 33.50,31.00 L 33.50,30.00 L 33.50,29.00 L 34.00,28.50 L 34.50,28.00 L 35.00,27.50 L 36.00,27.50 L 37.00,27.50 L 38.00,27.50 L 38.50,28.00 L 38.50,29.00 L 39.00,29.50 L 39.50,30.00 L 39.50,31.00 L 39.50,32.00 L 39.50,33.00 L 39.00,33.50 L 38.50,34.00 L 38.00,34.50 L 37.50,35.00 L 37.00,35.50 Z" fill="rgb(198,199,198)" stroke="none" /><path d="M 43.00,33.50 L 42.00,33.50 L 41.00,33.50 L 40.00,33.50 L 39.50,33.00 L 39.50,32.00 L 39.50,31.00 L 39.50,30.00 L 39.00,29.50 L 38.50,29.00 L 38.50,28.00 L 39.00,27.50 L 40.00,27.50 L 41.00,27.50 L 42.00,27.50 L 43.00,27.50 L 44.00,27.50 L 45.00,27.50 L 46.00,27.50 L 46.50,28.00 L 46.50,29.00 L 46.50,30.00 L 46.50,31.00 L 46.00,31.50 L 45.00,31.50 L 44.00,31.50 L 43.50,32.00 L 43.50,33.00 L 43.00,33.50 Z" fill="rgb(198,199,198)" stroke="none" /><path d="M 51.00,34.50 L 50.00,34.50 L 49.00,34.50 L 48.00,34.50 L 47.50,34.00 L 47.50,33.00 L 47.50,32.00 L 47.00,31.50 L 46.50,31.00 L 46.50,30.00 L 46.50,29.00 L 46.50,28.00 L 47.00,27.50 L 48.00,27.50 L 49.00,27.50 L 50.00,27.50 L 51.00,27.50 L 52.00,27.50 L 53.00,27.50 L 54.00,27.50 L 55.00,27.50 L 55.50,28.00 L 55.50,29.00 L 55.50,30.00 L 55.50,31.00 L 55.50,32.00 L 55.50,33.00 L 55.00,33.50 L 54.00,33.50 L 53.00,33.50 L 52.00,33.50 L 51.50,34.00 L 51.00,34.50 Z" fill="rgb(198,199,198)" stroke="none" /><path d="M 59.00,39.50 L 58.00,39.50 L 57.00,39.50 L 56.00,39.50 L 55.50,39.00 L 55.50,38.00 L 55.50,37.00 L 55.50,36.00 L 55.50,35.00 L 55.50,34.00 L 55.50,33.00 L 55.50,32.00 L 55.50,31.00 L 55.50,30.00 L 55.50,29.00 L 56.00,28.50 L 57.00,28.50 L 58.00,28.50 L 59.00,28.50 L 59.50,29.00 L 59.50,30.00 L 59.50,31.00 L 59.50,32.00 L 59.50,33.00 L 59.50,34.00 L 59.50,35.00 L 59.50,36.00 L 59.50,37.00 L 59.50,38.00 L 59.50,39.00 L 59.00,39.50 Z" fill="rgb(0,0,0)" stroke="none" /><path d="M 15.00,35.50 L 14.00,35.50 L 13.00,35.50 L 12.00,35.50 L 11.00,35.50 L 10.00,35.50 L 9.00,35.50 L 8.00,35.50 L 7.50,35.00 L 7.50,34.00 L 7.50,33.00 L 7.50,32.00 L 8.00,31.50 L 9.00,31.50 L 10.00,31.50 L 11.00,31.50 L 12.00,31.50 L 13.00,31.50 L 14.00,31.50 L 15.00,31.50 L 15.50,32.00 L 15.50,33.00 L 15.50,34.00 L 15.50,35.00 L 15.00,35.50 Z" fill="rgb(132,0,0)" stroke="none" /><path d="M 28.00,39.50 L 27.50,39.00 L 27.00,38.50 L 26.00,38.50 L 25.50,38.00 L 25.00,37.50 L 24.00,37.50 L 23.50,37.00 L 23.00,36.50 L 22.50,36.00 L 22.50,35.00 L 22.50,34.00 L 23.00,33.50 L 24.00,33.50 L 24.50,33.00 L 25.00,32.50 L 25.50,32.00 L 26.00,31.50 L 27.00,31.50 L 27.50,32.00 L 27.50,33.00 L 27.50,34.00 L 27.50,35.00 L 28.00,35.50 L 29.00,35.50 L 29.50,36.00 L 29.50,37.00 L 29.00,37.50 L 28.50,38.00 L 28.50,39.00 L 28.00,39.50 Z" fill="rgb(198,199,198)" stroke="none" /><path d="M 31.00,35.50 L 30.00,35.50 L 29.00,35.50 L 28.00,35.50 L 27.50,35.00 L 27.50,34.00 L 27.50,33.00 L 27.50,32.00 L 28.00,31.50 L 29.00,31.50 L 30.00,31.50 L 31.00,31.50 L 31.50,32.00 L 31.50,33.00 L 31.50,34.00 L 31.50,35.00 L 31.00,35.50 Z" fill="rgb(132,134,0)" stroke="none" /><path d="M 47.00,39.50 L 46.00,39.50 L 45.00,39.50 L 44.00,39.50 L 43.50,39.00 L 43.50,38.00 L 43.50,37.00 L 43.50,36.00 L 43.50,35.00 L 43.50,34.00 L 43.50,33.00 L 43.50,32.00 L 44.00,31.50 L 45.00,31.50 L 46.00,31.50 L 47.00,31.50 L 47.50,32.00 L 47.50,33.00 L 47.50,34.00 L 47.50,35.00 L 47.50,36.00 L 47.50,37.00 L 47.50,38.00 L 47.50,39.00 L 47.00,39.50 Z" fill="rgb(132,134,132)" stroke="none" /><path d="M 20.00,40.50 L 19.00,40.50 L 18.00,40.50 L 17.00,40.50 L 16.50,40.00 L 16.50,39.00 L 16.00,38.50 L 15.50,38.00 L 15.50,37.00 L 15.50,36.00 L 15.50,35.00 L 15.50,34.00 L 16.00,33.50 L 17.00,33.50 L 17.50,33.00 L 18.00,32.50 L 19.00,32.50 L 19.50,33.00 L 20.00,33.50 L 21.00,33.50 L 21.50,34.00 L 22.00,34.50 L 22.50,35.00 L 22.50,36.00 L 22.50,37.00 L 22.00,37.50 L 21.50,38.00 L 21.00,38.50 L 20.50,39.00 L 20.50,40.00 L 20.00,40.50 Z" fill="rgb(198,199,198)" stroke="none" /><path d="M 63.00,38.50 L 62.00,38.50 L 61.00,38.50 L 60.00,38.50 L 59.50,38.00 L 59.50,37.00 L 59.50,36.00 L 59.50,35.00 L 59.50,34.00 L 59.50,33.00 L 60.00,32.50 L 61.00,32.50 L 62.00,32.50 L 63.00,32.50 Z" fill="rgb(132,134,132)" stroke="none" /><path d="M 8.00,40.50 L 7.00,40.50 L 6.00,40.50 L 5.00,40.50 L 4.00,40.50 L 3.50,40.00 L 3.50,39.00 L 3.50,38.00 L 3.50,37.00 L 3.50,36.00 L 3.50,35.00 L 3.50,34.00 L 4.00,33.50 L 5.00,33.50 L 6.00,33.50 L 7.00,33.50 L 7.50,34.00 L 7.50,35.00 L 8.00,35.50 L 9.00,35.50 L 9.50,36.00 L 9.50,37.00 L 9.50,38.00 L 9.50,39.00 L 9.00,39.50 L 8.50,40.00 L 8.00,40.50 Z" fill="rgb(198,199,198)" stroke="none" /><path d="M 33.00,42.50 L 32.00,42.50 L 31.50,42.00 L 31.50,41.00 L 31.50,40.00 L 31.00,39.50 L 30.00,39.50 L 29.00,39.50 L 28.50,39.00 L 28.50,38.00 L 29.00,37.50 L 29.50,37.00 L 29.50,36.00 L 30.00,35.50 L 31.00,35.50 L 31.50,35.00 L 31.50,34.00 L 32.00,33.50 L 32.50,34.00 L 33.00,34.50 L 34.00,34.50 L 34.50,35.00 L 35.00,35.50 L 36.00,35.50 L 36.50,36.00 L 36.00,36.50 L 35.50,37.00 L 35.50,38.00 L 35.50,39.00 L 35.00,39.50 L 34.50,40.00 L 34.50,41.00 L 34.00,41.50 L 33.50,42.00 L 33.00,42.50 Z" fill="rgb(198,199,198)" stroke="none" /><path d="M 43.00,40.50 L 42.00,40.50 L 41.00,40.50 L 40.50,40.00 L 40.00,39.50 L 39.50,39.00 L 39.00,38.50 L 38.50,38.00 L 38.00,37.50 L 37.50,37.00 L 37.00,36.50 L 36.50,36.00 L 37.00,35.50 L 37.50,35.00 L 38.00,34.50 L 38.50,34.00 L 39.00,33.50 L 40.00,33.50 L 41.00,33.50 L 42.00,33.50 L 43.00,33.50 L 43.50,34.00 L 43.50,35.00 L 43.50,36.00 L 43.50,37.00 L 43.50,38.00 L 43.50,39.00 L 43.50,40.00 L 43.00,40.50 Z" fill="rgb(198,199,198)" stroke="none" /><path d="M 55.00,41.50 L 54.00,41.50 L 53.00,41.50 L 52.00,41.50 L 51.50,41.00 L 51.00,40.50 L 50.50,40.00 L 50.00,39.50 L 49.50,39.00 L 49.00,38.50 L 48.50,38.00 L 48.00,37.50 L 47.50,37.00 L 47.50,36.00 L 47.50,35.00 L 48.00,34.50 L 49.00,34.50 L 50.00,34.50 L 51.00,34.50 L 51.50,34.00 L 52.00,33.50 L 53.00,33.50 L 54.00,33.50 L 55.00,33.50 L 55.50,34.00 L 55.50,35.00 L 55.50,36.00 L 55.50,37.00 L 55.50,38.00 L 55.50,39.00 L 55.50,40.00 L 55.50,41.00 L 55.00,41.50 Z" fill="rgb(198,199,198)" stroke="none" /><path d="M 15.00,41.50 L 14.00,41.50 L 13.00,41.50 L 12.00,41.50 L 11.00,41.50 L 10.00,41.50 L 9.50,41.00 L 9.00,40.50 L 8.50,40.00 L 9.00,39.50 L 9.50,39.00 L 9.50,38.00 L 9.50,37.00 L 9.50,36.00 L 10.00,35.50 L 11.00,35.50 L 12.00,35.50 L 13.00,35.50 L 14.00,35.50 L 15.00,35.50 L 15.50,36.00 L 15.50,37.00 L 15.50,38.00 L 16.00,38.50 L 16.50,39.00 L 16.50,40.00 L 16.00,40.50 L 15.50,41.00 L 15.00,41.50 Z" fill="rgb(198,199,198)" stroke="none" /><path d="M 27.00,42.50 L 26.00,42.50 L 25.00,42.50 L 24.00,42.50 L 23.00,42.50 L 22.00,42.50 L 21.00,42.50 L 20.50,42.00 L 20.50,41.00 L 20.50,40.00 L 20.50,39.00 L 21.00,38.50 L 21.50,38.00 L 22.00,37.50 L 22.50,37.00 L 23.00,36.50 L 23.50,37.00 L 24.00,37.50 L 25.00,37.50 L 25.50,38.00 L 26.00,38.50 L 27.00,38.50 L 27.50,39.00 L 27.50,40.00 L 27.50,41.00 L 27.50,42.00 L 27.00,42.50 Z" fill="rgb(198,199,198)" stroke="none" /><path d="M 39.00,43.50 L 38.00,43.50 L 37.50,43.00 L 37.00,42.50 L 36.00,42.50 L 35.00,42.50 L 34.50,42.00 L 34.50,41.00 L 34.50,40.00 L 35.00,39.50 L 35.50,39.00 L 35.50,38.00 L 35.50,37.00 L 36.00,36.50 L 37.00,36.50 L 37.50,37.00 L 38.00,37.50 L 38.50,38.00 L 39.00,38.50 L 39.50,39.00 L 40.00,39.50 L 40.50,40.00 L 41.00,40.50 L 41.50,41.00 L 41.00,41.50 L 40.50,42.00 L 40.00,42.50 L 39.50,43.00 L 39.00,43.50 Z" fill="rgb(198,199,198)" stroke="none" /><path d="M 48.00,45.50 L 47.00,45.50 L 46.50,45.00 L 46.50,44.00 L 46.00,43.50 L 45.50,43.00 L 45.00,42.50 L 44.50,42.00 L 44.00,41.50 L 43.50,41.00 L 43.50,40.00 L 44.00,39.50 L 45.00,39.50 L 46.00,39.50 L 47.00,39.50 L 47.50,39.00 L 47.50,38.00 L 48.00,37.50 L 48.50,38.00 L 49.00,38.50 L 49.50,39.00 L 50.00,39.50 L 50.50,40.00 L 51.00,40.50 L 51.50,41.00 L 51.00,41.50 L 50.50,42.00 L 50.00,42.50 L 49.50,43.00 L 49.50,44.00 L 49.00,44.50 L 48.50,45.00 L 48.00,45.50 Z" fill="rgb(198,199,198)" stroke="none" /><path d="M 63.00,45.50 L 62.00,45.50 L 61.00,45.50 L 60.00,45.50 L 59.50,45.00 L 59.50,44.00 L 59.50,43.00 L 59.50,42.00 L 59.50,41.00 L 59.50,40.00 L 59.50,39.00 L 60.00,38.50 L 61.00,38.50 L 62.00,38.50 L 63.00,38.50 Z" fill="rgb(132,134,132)" stroke="none" /><path d="M 31.00,43.50 L 30.00,43.50 L 29.00,43.50 L 28.00,43.50 L 27.50,43.00 L 27.50,42.00 L 27.50,41.00 L 27.50,40.00 L 28.00,39.50 L 29.00,39.50 L 30.00,39.50 L 31.00,39.50 L 31.50,40.00 L 31.50,41.00 L 31.50,42.00 L 31.50,43.00 L 31.00,43.50 Z" fill="rgb(132,134,0)" stroke="none" /><path d="M 59.00,48.50 L 58.00,48.50 L 57.00,48.50 L 56.00,48.50 L 55.50,48.00 L 55.50,47.00 L 55.50,46.00 L 55.50,45.00 L 55.50,44.00 L 55.50,43.00 L 55.50,42.00 L 55.50,41.00 L 55.50,40.00 L 56.00,39.50 L 57.00,39.50 L 58.00,39.50 L 59.00,39.50 L 59.50,40.00 L 59.50,41.00 L 59.50,42.00 L 59.50,43.00 L 59.50,44.00 L 59.50,45.00 L 59.50,46.00 L 59.50,47.00 L 59.50,48.00 L 59.00,48.50 Z" fill="rgb(0,0,0)" stroke="none" /><path d="M 8.00,47.50 L 7.00,47.50 L 6.00,47.50 L 5.00,47.50 L 4.00,47.50 L 3.50,47.00 L 3.50,46.00 L 3.50,45.00 L 3.50,44.00 L 3.50,43.00 L 3.50,42.00 L 3.50,41.00 L 4.00,40.50 L 5.00,40.50 L 6.00,40.50 L 7.00,40.50 L 8.00,40.50 L 9.00,40.50 L 9.50,41.00 L 9.50,42.00 L 9.50,43.00 L 9.00,43.50 L 8.50,44.00 L 8.50,45.00 L 8.50,46.00 L 8.50,47.00 L 8.00,47.50 Z" fill="rgb(198,199,198)" stroke="none" /><path d="M 20.00,47.50 L 19.00,47.50 L 18.00,47.50 L 17.00,47.50 L 16.00,47.50 L 15.00,47.50 L 14.50,47.00 L 14.50,46.00 L 14.50,45.00 L 14.50,44.00 L 14.50,43.00 L 14.50,42.00 L 15.00,41.50 L 15.50,41.00 L 16.00,40.50 L 17.00,40.50 L 18.00,40.50 L 19.00,40.50 L 20.00,40.50 L 20.50,41.00 L 20.50,42.00 L 20.50,43.00 L 20.50,44.00 L 20.50,45.00 L 20.50,46.00 L 20.50,47.00 L 20.00,47.50 Z" fill="rgb(198,199,198)" stroke="none" /><path d="M 47.00,47.50 L 46.00,47.50 L 45.00,47.50 L 44.00,47.50 L 43.00,47.50 L 42.00,47.50 L 41.00,47.50 L 40.00,47.50 L 39.50,47.00 L 39.50,46.00 L 39.50,45.00 L 39.50,44.00 L 39.50,43.00 L 40.00,42.50 L 40.50,42.00 L 41.00,41.50 L 41.50,41.00 L 42.00,40.50 L 43.00,40.50 L 43.50,41.00 L 44.00,41.50 L 44.50,42.00 L 45.00,42.50 L 45.50,43.00 L 46.00,43.50 L 46.50,44.00 L 46.50,45.00 L 47.00,45.50 L 47.50,46.00 L 47.50,47.00 L 47.00,47.50 Z" fill="rgb(198,199,198)" stroke="none" /><path d="M 14.00,47.50 L 13.00,47.50 L 12.00,47.50 L 11.00,47.50 L 10.00,47.50 L 9.00,47.50 L 8.50,47.00 L 8.50,46.00 L 8.50,45.00 L 8.50,44.00 L 9.00,43.50 L 9.50,43.00 L 9.50,42.00 L 10.00,41.50 L 11.00,41.50 L 12.00,41.50 L 13.00,41.50 L 14.00,41.50 L 14.50,42.00 L 14.50,43.00 L 14.50,44.00 L 14.50,45.00 L 14.50,46.00 L 14.50,47.00 L 14.00,47.50 Z" fill="rgb(198,199,198)" stroke="none" /><path d="M 39.00,47.50 L 38.00,47.50 L 37.00,47.50 L 36.00,47.50 L 35.00,47.50 L 34.00,47.50 L 33.00,47.50 L 32.50,47.00 L 32.50,46.00 L 32.50,45.00 L 32.50,44.00 L 32.50,43.00 L 33.00,42.50 L 33.50,42.00 L 34.00,41.50 L 34.50,42.00 L 35.00,42.50 L 36.00,42.50 L 37.00,42.50 L 37.50,43.00 L 38.00,43.50 L 39.00,43.50 L 39.50,44.00 L 39.50,45.00 L 39.50,46.00 L 39.50,47.00 L 39.00,47.50 Z" fill="rgb(198,199,198)" stroke="none" /><path d="M 55.00,47.50 L 54.00,47.50 L 53.00,47.50 L 52.00,47.50 L 51.00,47.50 L 50.00,47.50 L 49.00,47.50 L 48.00,47.50 L 47.50,47.00 L 47.50,46.00 L 48.00,45.50 L 48.50,45.00 L 49.00,44.50 L 49.50,44.00 L 49.50,43.00 L 50.00,42.50 L 50.50,42.00 L 51.00,41.50 L 52.00,41.50 L 53.00,41.50 L 54.00,41.50 L 55.00,41.50 L 55.50,42.00 L 55.50,43.00 L 55.50,44.00 L 55.50,45.00 L 55.50,46.00 L 55.50,47.00 L 55.00,47.50 Z" fill="rgb(198,199,198)" stroke="none" /><path d="M 26.00,47.50 L 25.00,47.50 L 24.00,47.50 L 23.00,47.50 L 22.00,47.50 L 21.00,47.50 L 20.50,47.00 L 20.50,46.00 L 20.50,45.00 L 20.50,44.00 L 20.50,43.00 L 21.00,42.50 L 22.00,42.50 L 23.00,42.50 L 24.00,42.50 L 25.00,42.50 L 26.00,42.50 L 26.50,43.00 L 26.50,44.00 L 26.50,45.00 L 26.50,46.00 L 26.50,47.00 L 26.00,47.50 Z" fill="rgb(198,199,198)" stroke="none" /><path d="M 32.00,47.50 L 31.00,47.50 L 30.00,47.50 L 29.00,47.50 L 28.00,47.50 L 27.00,47.50 L 26.50,47.00 L 26.50,46.00 L 26.50,45.00 L 26.50,44.00 L 26.50,43.00 L 27.00,42.50 L 27.50,43.00 L 28.00,43.50 L 29.00,43.50 L 30.00,43.50 L 31.00,43.50 L 31.50,43.00 L 32.00,42.50 L 32.50,43.00 L 32.50,44.00 L 32.50,45.00 L 32.50,46.00 L 32.50,47.00 L 32.00,47.50 Z" fill="rgb(198,199,198)" stroke="none" /><path d="M 63.00,51.50 L 62.00,51.50 L 61.00,51.50 L 60.00,51.50 L 59.00,51.50 L 58.00,51.50 L 57.00,51.50 L 56.00,51.50 L 55.50,51.00 L 55.50,50.00 L 55.50,49.00 L 56.00,48.50 L 57.00,48.50 L 58.00,48.50 L 59.00,48.50 L 59.50,48.00 L 59.50,47.00 L 59.50,46.00 L 60.00,45.50 L 61.00,45.50 L 62.00,45.50 L 63.00,45.50 Z" fill="rgb(132,134,132)" stroke="none" /><path d="M 9.00,55.50 L 8.00,55.50 L 7.50,55.00 L 7.50,54.00 L 7.50,53.00 L 7.50,52.00 L 7.00,51.50 L 6.00,51.50 L 5.00,51.50 L 4.00,51.50 L 3.50,51.00 L 3.50,50.00 L 3.50,49.00 L 3.50,48.00 L 4.00,47.50 L 5.00,47.50 L 6.00,47.50 L 7.00,47.50 L 8.00,47.50 L 9.00,47.50 L 10.00,47.50 L 11.00,47.50 L 11.50,48.00 L 11.50,49.00 L 11.00,49.50 L 10.50,50.00 L 10.50,51.00 L 10.50,52.00 L 10.50,53.00 L 10.00,53.50 L 9.50,54.00 L 9.50,55.00 L 9.00,55.50 Z" fill="rgb(132,134,132)" stroke="none" /><path d="M 16.00,55.50 L 15.00,55.50 L 14.00,55.50 L 13.00,55.50 L 12.00,55.50 L 11.00,55.50 L 10.00,55.50 L 9.50,55.00 L 9.50,54.00 L 10.00,53.50 L 10.50,53.00 L 10.50,52.00 L 10.50,51.00 L 10.50,50.00 L 11.00,49.50 L 11.50,49.00 L 11.50,48.00 L 12.00,47.50 L 13.00,47.50 L 14.00,47.50 L 15.00,47.50 L 16.00,47.50 L 16.50,48.00 L 16.50,49.00 L 16.50,50.00 L 16.50,51.00 L 16.50,52.00 L 16.50,53.00 L 16.50,54.00 L 16.50,55.00 L 16.00,55.50 Z" fill="rgb(132,134,132)" stroke="none" /><path d="M 22.00,55.50 L 21.00,55.50 L 20.00,55.50 L 19.00,55.50 L 18.00,55.50 L 17.00,55.50 L 16.50,55.00 L 16.50,54.00 L 16.50,53.00 L 16.50,52.00 L 16.50,51.00 L 16.50,50.00 L 16.50,49.00 L 16.50,48.00 L 17.00,47.50 L 18.00,47.50 L 19.00,47.50 L 20.00,47.50 L 21.00,47.50 L 22.00,47.50 L 22.50,48.00 L 22.50,49.00 L 22.50,50.00 L 22.50,51.00 L 22.50,52.00 L 22.50,53.00 L 22.50,54.00 L 22.50,55.00 L 22.00,55.50 Z" fill="rgb(132,134,132)" stroke="none" /><path d="M 30.00,55.50 L 29.00,55.50 L 28.00,55.50 L 27.00,55.50 L 26.00,55.50 L 25.00,55.50 L 24.00,55.50 L 23.00,55.50 L 22.50,55.00 L 22.50,54.00 L 22.50,53.00 L 22.50,52.00 L 22.50,51.00 L 22.50,50.00 L 22.50,49.00 L 22.50,48.00 L 23.00,47.50 L 24.00,47.50 L 25.00,47.50 L 26.00,47.50 L 27.00,47.50 L 28.00,47.50 L 29.00,47.50 L 29.50,48.00 L 29.50,49.00 L 30.00,49.50 L 30.50,50.00 L 30.50,51.00 L 30.50,52.00 L 30.50,53.00 L 30.50,54.00 L 30.50,55.00 L 30.00,55.50 Z" fill="rgb(132,134,132)" stroke="none" /><path d="M 37.00,55.50 L 36.00,55.50 L 35.00,55.50 L 34.00,55.50 L 33.00,55.50 L 32.00,55.50 L 31.00,55.50 L 30.50,55.00 L 30.50,54.00 L 30.50,53.00 L 30.50,52.00 L 30.50,51.00 L 30.50,50.00 L 30.00,49.50 L 29.50,49.00 L 29.50,48.00 L 30.00,47.50 L 31.00,47.50 L 32.00,47.50 L 33.00,47.50 L 34.00,47.50 L 35.00,47.50 L 36.00,47.50 L 37.00,47.50 L 38.00,47.50 L 39.00,47.50 L 39.50,48.00 L 39.50,49.00 L 39.50,50.00 L 39.50,51.00 L 39.50,52.00 L 39.00,52.50 L 38.50,53.00 L 38.00,53.50 L 37.50,54.00 L 37.50,55.00 L 37.00,55.50 Z" fill="rgb(132,134,132)" stroke="none" /><path d="M 48.00,55.50 L 47.00,55.50 L 46.00,55.50 L 45.00,55.50 L 44.00,55.50 L 43.50,55.00 L 43.00,54.50 L 42.50,54.00 L 42.00,53.50 L 41.50,53.00 L 41.00,52.50 L 40.50,52.00 L 40.00,51.50 L 39.50,51.00 L 39.50,50.00 L 39.50,49.00 L 39.50,48.00 L 40.00,47.50 L 41.00,47.50 L 42.00,47.50 L 43.00,47.50 L 44.00,47.50 L 45.00,47.50 L 46.00,47.50 L 47.00,47.50 L 48.00,47.50 L 49.00,47.50 L 49.50,48.00 L 49.50,49.00 L 49.50,50.00 L 49.50,51.00 L 49.50,52.00 L 49.50,53.00 L 49.00,53.50 L 48.50,54.00 L 48.50,55.00 L 48.00,55.50 Z" fill="rgb(132,134,132)" stroke="none" /><path d="M 59.00,55.50 L 58.00,55.50 L 57.00,55.50 L 56.00,55.50 L 55.00,55.50 L 54.00,55.50 L 53.00,55.50 L 52.00,55.50 L 51.00,55.50 L 50.00,55.50 L 49.00,55.50 L 48.50,55.00 L 48.50,54.00 L 49.00,53.50 L 49.50,53.00 L 49.50,52.00 L 49.50,51.00 L 49.50,50.00 L 49.50,49.00 L 49.50,48.00 L 50.00,47.50 L 51.00,47.50 L 52.00,47.50 L 53.00,47.50 L 54.00,47.50 L 55.00,47.50 L 55.50,48.00 L 55.50,49.00 L 55.50,50.00 L 55.50,51.00 L 56.00,51.50 L 57.00,51.50 L 58.00,51.50 L 59.00,51.50 L 59.50,52.00 L 59.50,53.00 L 59.50,54.00 L 59.50,55.00 L 59.00,55.50 Z" fill="rgb(132,134,132)" stroke="none" /><path d="M 43.00,59.50 L 42.00,59.50 L 41.00,59.50 L 40.00,59.50 L 39.50,59.00 L 39.50,58.00 L 39.50,57.00 L 39.50,56.00 L 39.00,55.50 L 38.00,55.50 L 37.50,55.00 L 37.50,54.00 L 38.00,53.50 L 38.50,53.00 L 39.00,52.50 L 39.50,52.00 L 40.00,51.50 L 40.50,52.00 L 41.00,52.50 L 41.50,53.00 L 42.00,53.50 L 42.50,54.00 L 43.00,54.50 L 43.50,55.00 L 43.50,56.00 L 43.50,57.00 L 43.50,58.00 L 43.50,59.00 L 43.00,59.50 Z" fill="rgb(132,134,132)" stroke="none" /><path d="M 63.00,55.50 L 62.00,55.50 L 61.00,55.50 L 60.00,55.50 L 59.50,55.00 L 59.50,54.00 L 59.50,53.00 L 59.50,52.00 L 60.00,51.50 L 61.00,51.50 L 62.00,51.50 L 63.00,51.50 Z" fill="rgb(0,0,0)" stroke="none" /><path d="M 11.00,59.50 L 10.00,59.50 L 9.00,59.50 L 8.00,59.50 L 7.50,59.00 L 7.50,58.00 L 7.50,57.00 L 7.50,56.00 L 8.00,55.50 L 9.00,55.50 L 10.00,55.50 L 11.00,55.50 L 11.50,56.00 L 11.50,57.00 L 11.50,58.00 L 11.50,59.00 L 11.00,59.50 Z" fill="rgb(198,199,198)" stroke="none" /><path d="M 15.00,59.50 L 14.00,59.50 L 13.00,59.50 L 12.00,59.50 L 11.50,59.00 L 11.50,58.00 L 11.50,57.00 L 11.50,56.00 L 12.00,55.50 L 13.00,55.50 L 14.00,55.50 L 15.00,55.50 L 15.50,56.00 L 15.50,57.00 L 15.50,58.00 L 15.50,59.00 L 15.00,59.50 Z" fill="rgb(255,0,0)" stroke="none" /><path d="M 19.00,59.50 L 18.00,59.50 L 17.00,59.50 L 16.00,59.50 L 15.50,59.00 L 15.50,58.00 L 15.50,57.00 L 15.50,56.00 L 16.00,55.50 L 17.00,55.50 L 18.00,55.50 L 19.00,55.50 L 19.50,56.00 L 19.50,57.00 L 19.50,58.00 L 19.50,59.00 L 19.00,59.50 Z" fill="rgb(198,199,198)" stroke="none" /><path d="M 23.00,59.50 L 22.00,59.50 L 21.00,59.50 L 20.00,59.50 L 19.50,59.00 L 19.50,58.00 L 19.50,57.00 L 19.50,56.00 L 20.00,55.50 L 21.00,55.50 L 22.00,55.50 L 23.00,55.50 L 23.50,56.00 L 23.50,57.00 L 23.50,58.00 L 23.50,59.00 L 23.00,59.50 Z" fill="rgb(255,0,0)" stroke="none" /><path d="M 27.00,59.50 L 26.00,59.50 L 25.00,59.50 L 24.00,59.50 L 23.50,59.00 L 23.50,58.00 L 23.50,57.00 L 23.50,56.00 L 24.00,55.50 L 25.00,55.50 L 26.00,55.50 L 27.00,55.50 L 27.50,56.00 L 27.50,57.00 L 27.50,58.00 L 27.50,59.00 L 27.00,59.50 Z" fill="rgb(198,199,198)" stroke="none" /><path d="M 31.00,59.50 L 30.00,59.50 L 29.00,59.50 L 28.00,59.50 L 27.50,59.00 L 27.50,58.00 L 27.50,57.00 L 27.50,56.00 L 28.00,55.50 L 29.00,55.50 L 30.00,55.50 L 31.00,55.50 L 31.50,56.00 L 31.50,57.00 L 31.50,58.00 L 31.50,59.00 L 31.00,59.50 Z" fill="rgb(255,0,0)" stroke="none" /><path d="M 35.00,59.50 L 34.00,59.50 L 33.00,59.50 L 32.00,59.50 L 31.50,59.00 L 31.50,58.00 L 31.50,57.00 L 31.50,56.00 L 32.00,55.50 L 33.00,55.50 L 34.00,55.50 L 35.00,55.50 L 35.50,56.00 L 35.50,57.00 L 35.50,58.00 L 35.50,59.00 L 35.00,59.50 Z" fill="rgb(198,199,198)" stroke="none" /><path d="M 39.00,59.50 L 38.00,59.50 L 37.00,59.50 L 36.00,59.50 L 35.50,59.00 L 35.50,58.00 L 35.50,57.00 L 35.50,56.00 L 36.00,55.50 L 37.00,55.50 L 38.00,55.50 L 39.00,55.50 L 39.50,56.00 L 39.50,57.00 L 39.50,58.00 L 39.50,59.00 L 39.00,59.50 Z" fill="rgb(255,0,0)" stroke="none" /><path d="M 47.00,59.50 L 46.00,59.50 L 45.00,59.50 L 44.00,59.50 L 43.50,59.00 L 43.50,58.00 L 43.50,57.00 L 43.50,56.00 L 44.00,55.50 L 45.00,55.50 L 46.00,55.50 L 47.00,55.50 L 47.50,56.00 L 47.50,57.00 L 47.50,58.00 L 47.50,59.00 L 47.00,59.50 Z" fill="rgb(255,0,0)" stroke="none" /><path d="M 51.00,59.50 L 50.00,59.50 L 49.00,59.50 L 48.00,59.50 L 47.50,59.00 L 47.50,58.00 L 47.50,57.00 L 47.50,56.00 L 48.00,55.50 L 49.00,55.50 L 50.00,55.50 L 51.00,55.50 L 51.50,56.00 L 51.50,57.00 L 51.50,58.00 L 51.50,59.00 L 51.00,59.50 Z" fill="rgb(198,199,198)" stroke="none" /><path d="M 55.00,59.50 L 54.00,59.50 L 53.00,59.50 L 52.00,59.50 L 51.50,59.00 L 51.50,58.00 L 51.50,57.00 L 51.50,56.00 L 52.00,55.50 L 53.00,55.50 L 54.00,55.50 L 55.00,55.50 L 55.50,56.00 L 55.50,57.00 L 55.50,58.00 L 55.50,59.00 L 55.00,59.50 Z" fill="rgb(255,0,0)" stroke="none" /><path d="M 63.00,59.50 L 62.00,59.50 L 61.00,59.50 L 60.00,59.50 L 59.00,59.50 L 58.00,59.50 L 57.00,59.50 L 56.00,59.50 L 55.50,59.00 L 55.50,58.00 L 55.50,57.00 L 55.50,56.00 L 56.00,55.50 L 57.00,55.50 L 58.00,55.50 L 59.00,55.50 L 60.00,55.50 L 61.00,55.50 L 62.00,55.50 L 63.00,55.50 Z" fill="rgb(198,199,198)" stroke="none" /></svg>