<?xml version="1.0" encoding="utf-8" ?>
<svg baseProfile="full" height="64" version="1.1" width="64" xmlns="http://www.w3.org/2000/svg" xmlns:ev="http://www.w3.org/2001/xml-events" xmlns:xlink="http://www.w3.org/1999/xlink"><defs /><path d="M 20.00,11.50 L 19.00,11.50 L 18.00,11.50 L 17.00,11.50 L 16.00,11.50 L 15.00,11.50 L 14.00,11.50 L 13.00,11.50 L 12.50,11.00 L 12.50,10.00 L 12.50,9.00 L 12.50,8.00 L 13.00,7.50 L 14.00,7.50 L 15.00,7.50 L 16.00,7.50 L 17.00,7.50 L 18.00,7.50 L 19.00,7.50 L 20.00,7.50 L 20.50,8.00 L 20.50,9.00 L 20.50,10.00 L 20.50,11.00 L 20.00,11.50 Z" fill="rgb(192,192,192)" stroke="none" /><path d="M 28.00,11.50 L 27.00,11.50 L 26.00,11.50 L 25.00,11.50 L 24.00,11.50 L 23.00,11.50 L 22.00,11.50 L 21.00,11.50 L 20.50,11.00 L 20.50,10.00 L 20.50,9.00 L 20.50,8.00 L 21.00,7.50 L 22.00,7.50 L 23.00,7.50 L 24.00,7.50 L 25.00,7.50 L 26.00,7.50 L 27.00,7.50 L 28.00,7.50 L 29.00,7.50 L 29.50,8.00 L 29.50,9.00 L 29.00,9.50 L 28.50,10.00 L 28.50,11.00 L 28.00,11.50 Z" fill="rgb(192,192,192)" stroke="none" /><path d="M 34.00,11.50 L 33.00,11.50 L 32.00,11.50 L 31.00,11.50 L 30.00,11.50 L 29.00,11.50 L 28.50,11.00 L 28.50,10.00 L 29.00,9.50 L 29.50,9.00 L 29.50,8.00 L 30.00,7.50 L 31.00,7.50 L 32.00,7.50 L 33.00,7.50 L 34.00,7.50 L 34.50,8.00 L 34.50,9.00 L 34.50,10.00 L 34.50,11.00 L 34.00,11.50 Z" fill="rgb(192,192,192)" stroke="none" /><path d="M 12.00,15.50 L 11.00,15.50 L 10.00,15.50 L 9.00,15.50 L 8.50,15.00 L 8.50,14.00 L 8.50,13.00 L 8.50,12.00 L 9.00,11.50 L 10.00,11.50 L 11.00,11.50 L 12.00,11.50 L 12.50,12.00 L 12.50,13.00 L 12.50,14.00 L 12.50,15.00 L 12.00,15.50 Z" fill="rgb(192,192,192)" stroke="none" /><path d="M 17.00,18.50 L 16.00,18.50 L 15.00,18.50 L 14.00,18.50 L 13.50,18.00 L 13.00,17.50 L 12.50,17.00 L 12.00,16.50 L 11.50,16.00 L 12.00,15.50 L 12.50,15.00 L 12.50,14.00 L 12.50,13.00 L 12.50,12.00 L 13.00,11.50 L 14.00,11.50 L 15.00,11.50 L 16.00,11.50 L 17.00,11.50 L 17.50,12.00 L 17.50,13.00 L 17.50,14.00 L 18.00,14.50 L 18.50,15.00 L 18.50,16.00 L 18.50,17.00 L 18.00,17.50 L 17.50,18.00 L 17.00,18.50 Z" fill="rgb(221,221,221)" stroke="none" /><path d="M 23.00,16.50 L 22.00,16.50 L 21.00,16.50 L 20.00,16.50 L 19.00,16.50 L 18.50,16.00 L 18.50,15.00 L 18.00,14.50 L 17.50,14.00 L 17.50,13.00 L 17.50,12.00 L 18.00,11.50 L 19.00,11.50 L 20.00,11.50 L 21.00,11.50 L 22.00,11.50 L 23.00,11.50 L 24.00,11.50 L 24.50,12.00 L 24.00,12.50 L 23.50,13.00 L 23.50,14.00 L 23.50,15.00 L 23.50,16.00 L 23.00,16.50 Z" fill="rgb(221,221,221)" stroke="none" /><path d="M 28.00,18.50 L 27.00,18.50 L 26.00,18.50 L 25.00,18.50 L 24.50,18.00 L 24.00,17.50 L 23.50,17.00 L 23.50,16.00 L 23.50,15.00 L 23.50,14.00 L 23.50,13.00 L 24.00,12.50 L 24.50,12.00 L 25.00,11.50 L 26.00,11.50 L 27.00,11.50 L 28.00,11.50 L 28.50,12.00 L 28.50,13.00 L 28.50,14.00 L 29.00,14.50 L 29.50,15.00 L 29.50,16.00 L 29.00,16.50 L 28.50,17.00 L 28.50,18.00 L 28.00,18.50 Z" fill="rgb(221,221,221)" stroke="none" /><path d="M 38.00,15.50 L 37.00,15.50 L 36.00,15.50 L 35.00,15.50 L 34.00,15.50 L 33.00,15.50 L 32.00,15.50 L 31.00,15.50 L 30.00,15.50 L 29.50,15.00 L 29.00,14.50 L 28.50,14.00 L 28.50,13.00 L 28.50,12.00 L 29.00,11.50 L 30.00,11.50 L 31.00,11.50 L 32.00,11.50 L 33.00,11.50 L 34.00,11.50 L 35.00,11.50 L 36.00,11.50 L 37.00,11.50 L 38.00,11.50 L 38.50,12.00 L 38.50,13.00 L 38.50,14.00 L 38.50,15.00 L 38.00,15.50 Z" fill="rgb(221,221,221)" stroke="none" /><path d="M 8.00,24.50 L 7.00,24.50 L 6.00,24.50 L 5.00,24.50 L 4.50,24.00 L 4.50,23.00 L 4.50,22.00 L 4.50,21.00 L 4.50,20.00 L 4.50,19.00 L 4.50,18.00 L 4.50,17.00 L 4.50,16.00 L 5.00,15.50 L 6.00,15.50 L 7.00,15.50 L 8.00,15.50 L 8.50,16.00 L 8.50,17.00 L 8.50,18.00 L 8.50,19.00 L 8.50,20.00 L 8.50,21.00 L 8.50,22.00 L 8.50,23.00 L 8.50,24.00 L 8.00,24.50 Z" fill="rgb(192,192,192)" stroke="none" /><path d="M 12.00,23.50 L 11.00,23.50 L 10.00,23.50 L 9.00,23.50 L 8.50,23.00 L 8.50,22.00 L 8.50,21.00 L 8.50,20.00 L 8.50,19.00 L 8.50,18.00 L 8.50,17.00 L 8.50,16.00 L 9.00,15.50 L 10.00,15.50 L 11.00,15.50 L 11.50,16.00 L 12.00,16.50 L 12.50,17.00 L 13.00,17.50 L 13.50,18.00 L 14.00,18.50 L 14.50,19.00 L 14.50,20.00 L 14.00,20.50 L 13.50,21.00 L 13.50,22.00 L 13.00,22.50 L 12.50,23.00 L 12.00,23.50 Z" fill="rgb(221,221,221)" stroke="none" /><path d="M 33.00,20.50 L 32.50,20.00 L 32.00,19.50 L 31.00,19.50 L 30.00,19.50 L 29.50,19.00 L 29.00,18.50 L 28.50,18.00 L 28.50,17.00 L 29.00,16.50 L 29.50,16.00 L 30.00,15.50 L 31.00,15.50 L 32.00,15.50 L 33.00,15.50 L 34.00,15.50 L 34.50,16.00 L 34.50,17.00 L 34.50,18.00 L 34.00,18.50 L 33.50,19.00 L 33.50,20.00 L 33.00,20.50 Z" fill="rgb(221,221,221)" stroke="none" /><path d="M 38.00,21.50 L 37.00,21.50 L 36.00,21.50 L 35.50,21.00 L 35.00,20.50 L 34.00,20.50 L 33.50,20.00 L 33.50,19.00 L 34.00,18.50 L 34.50,18.00 L 34.50,17.00 L 34.50,16.00 L 35.00,15.50 L 36.00,15.50 L 37.00,15.50 L 38.00,15.50 L 38.50,16.00 L 38.50,17.00 L 38.50,18.00 L 38.50,19.00 L 39.00,19.50 L 39.50,20.00 L 39.00,20.50 L 38.50,21.00 L 38.00,21.50 Z" fill="rgb(221,221,221)" stroke="none" /><path d="M 43.00,19.50 L 42.00,19.50 L 41.00,19.50 L 40.00,19.50 L 39.00,19.50 L 38.50,19.00 L 38.50,18.00 L 38.50,17.00 L 38.50,16.00 L 39.00,15.50 L 40.00,15.50 L 41.00,15.50 L 42.00,15.50 L 43.00,15.50 L 43.50,16.00 L 43.50,17.00 L 43.50,18.00 L 43.50,19.00 L 43.00,19.50 Z" fill="rgb(192,192,192)" stroke="none" /><path d="M 50.00,19.50 L 49.00,19.50 L 48.00,19.50 L 47.00,19.50 L 46.00,19.50 L 45.00,19.50 L 44.00,19.50 L 43.50,19.00 L 43.50,18.00 L 43.50,17.00 L 43.50,16.00 L 44.00,15.50 L 45.00,15.50 L 46.00,15.50 L 47.00,15.50 L 48.00,15.50 L 49.00,15.50 L 50.00,15.50 L 50.50,16.00 L 50.50,17.00 L 50.50,18.00 L 50.50,19.00 L 50.00,19.50 Z" fill="rgb(192,192,192)" stroke="none" /><path d="M 56.00,19.50 L 55.00,19.50 L 54.00,19.50 L 53.00,19.50 L 52.00,19.50 L 51.00,19.50 L 50.50,19.00 L 50.50,18.00 L 50.50,17.00 L 50.50,16.00 L 51.00,15.50 L 52.00,15.50 L 53.00,15.50 L 54.00,15.50 L 55.00,15.50 L 56.00,15.50 L 56.50,16.00 L 56.50,17.00 L 56.50,18.00 L 56.50,19.00 L 56.00,19.50 Z" fill="rgb(192,192,192)" stroke="none" /><path d="M 63.00,18.50 L 62.50,19.00 L 62.00,19.50 L 61.00,19.50 L 60.00,19.50 L 59.00,19.50 L 58.00,19.50 L 57.00,19.50 L 56.50,19.00 L 56.50,18.00 L 56.50,17.00 L 56.50,16.00 L 57.00,15.50 L 58.00,15.50 L 59.00,15.50 L 60.00,15.50 L 61.00,15.50 L 62.00,15.50 L 63.00,15.50 Z" fill="rgb(192,192,192)" stroke="none" /><path d="M 22.00,22.50 L 21.00,22.50 L 20.00,22.50 L 19.50,22.00 L 19.00,21.50 L 18.50,21.00 L 18.50,20.00 L 18.00,19.50 L 17.50,19.00 L 17.50,18.00 L 18.00,17.50 L 18.50,17.00 L 19.00,16.50 L 20.00,16.50 L 21.00,16.50 L 22.00,16.50 L 23.00,16.50 L 23.50,17.00 L 24.00,17.50 L 24.50,18.00 L 24.50,19.00 L 24.00,19.50 L 23.50,20.00 L 23.50,21.00 L 23.00,21.50 L 22.50,22.00 L 22.00,22.50 Z" fill="rgb(221,221,221)" stroke="none" /><path d="M 18.00,25.50 L 17.00,25.50 L 16.00,25.50 L 15.00,25.50 L 14.50,25.00 L 14.00,24.50 L 13.50,24.00 L 13.00,23.50 L 12.50,23.00 L 13.00,22.50 L 13.50,22.00 L 13.50,21.00 L 14.00,20.50 L 14.50,20.00 L 14.50,19.00 L 15.00,18.50 L 16.00,18.50 L 17.00,18.50 L 17.50,19.00 L 18.00,19.50 L 18.50,20.00 L 18.50,21.00 L 19.00,21.50 L 19.50,22.00 L 19.50,23.00 L 19.50,24.00 L 19.00,24.50 L 18.50,25.00 L 18.00,25.50 Z" fill="rgb(221,221,221)" stroke="none" /><path d="M 26.00,24.50 L 25.00,24.50 L 24.50,24.00 L 24.00,23.50 L 23.50,23.00 L 23.00,22.50 L 22.50,22.00 L 23.00,21.50 L 23.50,21.00 L 23.50,20.00 L 24.00,19.50 L 24.50,19.00 L 25.00,18.50 L 26.00,18.50 L 27.00,18.50 L 28.00,18.50 L 28.50,19.00 L 28.50,20.00 L 28.50,21.00 L 28.50,22.00 L 28.50,23.00 L 28.00,23.50 L 27.00,23.50 L 26.50,24.00 L 26.00,24.50 Z" fill="rgb(221,221,221)" stroke="none" /><path d="M 31.00,24.50 L 30.50,24.00 L 30.00,23.50 L 29.00,23.50 L 28.50,23.00 L 28.50,22.00 L 28.50,21.00 L 28.50,20.00 L 28.50,19.00 L 29.00,18.50 L 29.50,19.00 L 30.00,19.50 L 31.00,19.50 L 32.00,19.50 L 32.50,20.00 L 33.00,20.50 L 33.50,21.00 L 33.00,21.50 L 32.50,22.00 L 32.50,23.00 L 32.00,23.50 L 31.50,24.00 L 31.00,24.50 Z" fill="rgb(221,221,221)" stroke="none" /><path d="M 63.00,24.50 L 62.00,24.50 L 61.00,24.50 L 60.00,24.50 L 59.50,24.00 L 59.50,23.00 L 59.50,22.00 L 59.50,21.00 L 59.50,20.00 L 60.00,19.50 L 61.00,19.50 L 62.00,19.50 L 62.50,19.00 L 63.00,18.50 Z" fill="rgb(192,192,192)" stroke="none" /><path d="M 42.00,25.50 L 41.00,25.50 L 40.00,25.50 L 39.50,25.00 L 39.00,24.50 L 38.00,24.50 L 37.50,24.00 L 37.50,23.00 L 37.50,22.00 L 38.00,21.50 L 38.50,21.00 L 39.00,20.50 L 39.50,20.00 L 40.00,19.50 L 41.00,19.50 L 42.00,19.50 L 42.50,20.00 L 42.50,21.00 L 43.00,21.50 L 43.50,22.00 L 43.50,23.00 L 43.50,24.00 L 43.00,24.50 L 42.50,25.00 L 42.00,25.50 Z" fill="rgb(221,221,221)" stroke="none" /><path d="M 47.00,23.50 L 46.00,23.50 L 45.00,23.50 L 44.00,23.50 L 43.50,23.00 L 43.50,22.00 L 43.00,21.50 L 42.50,21.00 L 42.50,20.00 L 43.00,19.50 L 44.00,19.50 L 45.00,19.50 L 46.00,19.50 L 47.00,19.50 L 48.00,19.50 L 48.50,20.00 L 48.50,21.00 L 48.50,22.00 L 48.00,22.50 L 47.50,23.00 L 47.00,23.50 Z" fill="rgb(221,221,221)" stroke="none" /><path d="M 53.00,25.50 L 52.00,25.50 L 51.00,25.50 L 50.00,25.50 L 49.50,25.00 L 49.00,24.50 L 48.50,24.00 L 48.50,23.00 L 48.50,22.00 L 48.50,21.00 L 48.50,20.00 L 49.00,19.50 L 50.00,19.50 L 51.00,19.50 L 52.00,19.50 L 53.00,19.50 L 53.50,20.00 L 53.50,21.00 L 53.50,22.00 L 53.50,23.00 L 53.50,24.00 L 53.50,25.00 L 53.00,25.50 Z" fill="rgb(221,221,221)" stroke="none" /><path d="M 59.00,25.50 L 58.00,25.50 L 57.00,25.50 L 56.00,25.50 L 55.00,25.50 L 54.00,25.50 L 53.50,25.00 L 53.50,24.00 L 53.50,23.00 L 53.50,22.00 L 53.50,21.00 L 53.50,20.00 L 54.00,19.50 L 55.00,19.50 L 56.00,19.50 L 57.00,19.50 L 58.00,19.50 L 59.00,19.50 L 59.50,20.00 L 59.50,21.00 L 59.50,22.00 L 59.50,23.00 L 59.50,24.00 L 59.50,25.00 L 59.00,25.50 Z" fill="rgb(221,221,221)" stroke="none" /><path d="M 35.00,26.50 L 34.50,26.00 L 34.00,25.50 L 33.00,25.50 L 32.00,25.50 L 31.50,25.00 L 31.50,24.00 L 32.00,23.50 L 32.50,23.00 L 32.50,22.00 L 33.00,21.50 L 33.50,21.00 L 34.00,20.50 L 35.00,20.50 L 35.50,21.00 L 36.00,21.50 L 37.00,21.50 L 37.50,22.00 L 37.50,23.00 L 37.50,24.00 L 37.00,24.50 L 36.50,25.00 L 36.00,25.50 L 35.50,26.00 L 35.00,26.50 Z" fill="rgb(221,221,221)" stroke="none" /><path d="M 23.00,28.50 L 22.00,28.50 L 21.00,28.50 L 20.00,28.50 L 19.50,28.00 L 19.50,27.00 L 19.00,26.50 L 18.50,26.00 L 18.50,25.00 L 19.00,24.50 L 19.50,24.00 L 19.50,23.00 L 20.00,22.50 L 21.00,22.50 L 22.00,22.50 L 23.00,22.50 L 23.50,23.00 L 24.00,23.50 L 24.50,24.00 L 25.00,24.50 L 25.50,25.00 L 25.50,26.00 L 25.00,26.50 L 24.50,27.00 L 24.00,27.50 L 23.50,28.00 L 23.00,28.50 Z" fill="rgb(221,221,221)" stroke="none" /><path d="M 48.00,27.50 L 47.00,27.50 L 46.00,27.50 L 45.00,27.50 L 44.50,27.00 L 44.00,26.50 L 43.50,26.00 L 43.50,25.00 L 43.50,24.00 L 44.00,23.50 L 45.00,23.50 L 46.00,23.50 L 47.00,23.50 L 47.50,23.00 L 48.00,22.50 L 48.50,23.00 L 48.50,24.00 L 49.00,24.50 L 49.50,25.00 L 49.50,26.00 L 49.00,26.50 L 48.50,27.00 L 48.00,27.50 Z" fill="rgb(221,221,221)" stroke="none" /><path d="M 13.00,29.50 L 12.00,29.50 L 11.00,29.50 L 10.00,29.50 L 9.00,29.50 L 8.50,29.00 L 8.50,28.00 L 8.50,27.00 L 8.50,26.00 L 8.50,25.00 L 8.50,24.00 L 9.00,23.50 L 10.00,23.50 L 11.00,23.50 L 12.00,23.50 L 13.00,23.50 L 13.50,24.00 L 14.00,24.50 L 14.50,25.00 L 14.50,26.00 L 14.50,27.00 L 14.00,27.50 L 13.50,28.00 L 13.50,29.00 L 13.00,29.50 Z" fill="rgb(221,221,221)" stroke="none" /><path d="M 30.00,28.50 L 29.00,28.50 L 28.50,28.00 L 28.00,27.50 L 27.00,27.50 L 26.50,27.00 L 26.00,26.50 L 25.50,26.00 L 25.50,25.00 L 26.00,24.50 L 26.50,24.00 L 27.00,23.50 L 28.00,23.50 L 29.00,23.50 L 30.00,23.50 L 30.50,24.00 L 31.00,24.50 L 31.50,25.00 L 31.50,26.00 L 31.00,26.50 L 30.50,27.00 L 30.50,28.00 L 30.00,28.50 Z" fill="rgb(221,221,221)" stroke="none" /><path d="M 8.00,32.50 L 7.00,32.50 L 6.00,32.50 L 5.00,32.50 L 4.50,32.00 L 4.50,31.00 L 4.50,30.00 L 4.50,29.00 L 4.50,28.00 L 4.50,27.00 L 4.50,26.00 L 4.50,25.00 L 5.00,24.50 L 6.00,24.50 L 7.00,24.50 L 8.00,24.50 L 8.50,25.00 L 8.50,26.00 L 8.50,27.00 L 8.50,28.00 L 8.50,29.00 L 8.50,30.00 L 8.50,31.00 L 8.50,32.00 L 8.00,32.50 Z" fill="rgb(192,192,192)" stroke="none" /><path d="M 39.00,29.50 L 38.00,29.50 L 37.00,29.50 L 36.00,29.50 L 35.50,29.00 L 35.50,28.00 L 35.50,27.00 L 35.50,26.00 L 36.00,25.50 L 36.50,25.00 L 37.00,24.50 L 38.00,24.50 L 39.00,24.50 L 39.50,25.00 L 40.00,25.50 L 40.50,26.00 L 40.50,27.00 L 40.00,27.50 L 39.50,28.00 L 39.50,29.00 L 39.00,29.50 Z" fill="rgb(221,221,221)" stroke="none" /><path d="M 43.00,30.50 L 42.00,30.50 L 41.00,30.50 L 40.00,30.50 L 39.50,30.00 L 39.50,29.00 L 39.50,28.00 L 40.00,27.50 L 40.50,27.00 L 40.50,26.00 L 41.00,25.50 L 42.00,25.50 L 42.50,25.00 L 43.00,24.50 L 43.50,25.00 L 43.50,26.00 L 44.00,26.50 L 44.50,27.00 L 44.50,28.00 L 44.50,29.00 L 44.00,29.50 L 43.50,30.00 L 43.00,30.50 Z" fill="rgb(221,221,221)" stroke="none" /><path d="M 63.00,31.50 L 62.00,31.50 L 61.00,31.50 L 60.00,31.50 L 59.50,31.00 L 59.50,30.00 L 59.50,29.00 L 59.50,28.00 L 59.50,27.00 L 59.50,26.00 L 59.50,25.00 L 60.00,24.50 L 61.00,24.50 L 62.00,24.50 L 63.00,24.50 Z" fill="rgb(192,192,192)" stroke="none" /><path d="M 17.00,32.50 L 16.00,32.50 L 15.50,32.00 L 15.00,31.50 L 14.50,31.00 L 14.00,30.50 L 13.50,30.00 L 13.50,29.00 L 13.50,28.00 L 14.00,27.50 L 14.50,27.00 L 14.50,26.00 L 15.00,25.50 L 16.00,25.50 L 17.00,25.50 L 18.00,25.50 L 18.50,26.00 L 19.00,26.50 L 19.50,27.00 L 19.50,28.00 L 19.50,29.00 L 19.00,29.50 L 18.50,30.00 L 18.50,31.00 L 18.00,31.50 L 17.50,32.00 L 17.00,32.50 Z" fill="rgb(221,221,221)" stroke="none" /><path d="M 35.00,30.50 L 34.00,30.50 L 33.00,30.50 L 32.00,30.50 L 31.50,30.00 L 31.00,29.50 L 30.00,29.50 L 29.50,29.00 L 30.00,28.50 L 30.50,28.00 L 30.50,27.00 L 31.00,26.50 L 31.50,26.00 L 32.00,25.50 L 33.00,25.50 L 34.00,25.50 L 34.50,26.00 L 35.00,26.50 L 35.50,27.00 L 35.50,28.00 L 35.50,29.00 L 35.50,30.00 L 35.00,30.50 Z" fill="rgb(221,221,221)" stroke="none" /><path d="M 53.00,31.50 L 52.00,31.50 L 51.00,31.50 L 50.00,31.50 L 49.50,31.00 L 49.00,30.50 L 48.50,30.00 L 48.50,29.00 L 48.50,28.00 L 48.50,27.00 L 49.00,26.50 L 49.50,26.00 L 50.00,25.50 L 51.00,25.50 L 52.00,25.50 L 53.00,25.50 L 53.50,26.00 L 53.50,27.00 L 53.50,28.00 L 53.50,29.00 L 53.50,30.00 L 53.50,31.00 L 53.00,31.50 Z" fill="rgb(221,221,221)" stroke="none" /><path d="M 59.00,30.50 L 58.00,30.50 L 57.00,30.50 L 56.00,30.50 L 55.00,30.50 L 54.00,30.50 L 53.50,30.00 L 53.50,29.00 L 53.50,28.00 L 53.50,27.00 L 53.50,26.00 L 54.00,25.50 L 55.00,25.50 L 56.00,25.50 L 57.00,25.50 L 58.00,25.50 L 59.00,25.50 L 59.50,26.00 L 59.50,27.00 L 59.50,28.00 L 59.50,29.00 L 59.50,30.00 L 59.00,30.50 Z" fill="rgb(221,221,221)" stroke="none" /><path d="M 29.00,31.50 L 28.00,31.50 L 27.00,31.50 L 26.00,31.50 L 25.00,31.50 L 24.50,31.00 L 24.00,30.50 L 23.50,30.00 L 23.50,29.00 L 23.50,28.00 L 24.00,27.50 L 24.50,27.00 L 25.00,26.50 L 26.00,26.50 L 26.50,27.00 L 27.00,27.50 L 28.00,27.50 L 28.50,28.00 L 29.00,28.50 L 29.50,29.00 L 29.50,30.00 L 29.50,31.00 L 29.00,31.50 Z" fill="rgb(221,221,221)" stroke="none" /><path d="M 46.00,33.50 L 45.50,33.00 L 45.00,32.50 L 44.50,32.00 L 44.00,31.50 L 43.50,31.00 L 43.50,30.00 L 44.00,29.50 L 44.50,29.00 L 44.50,28.00 L 45.00,27.50 L 46.00,27.50 L 47.00,27.50 L 48.00,27.50 L 48.50,28.00 L 48.50,29.00 L 48.50,30.00 L 48.50,31.00 L 48.00,31.50 L 47.50,32.00 L 47.00,32.50 L 46.50,33.00 L 46.00,33.50 Z" fill="rgb(221,221,221)" stroke="none" /><path d="M 22.00,35.50 L 21.50,35.00 L 21.00,34.50 L 20.00,34.50 L 19.50,34.00 L 19.00,33.50 L 18.50,33.00 L 18.00,32.50 L 17.50,32.00 L 18.00,31.50 L 18.50,31.00 L 18.50,30.00 L 19.00,29.50 L 19.50,29.00 L 20.00,28.50 L 21.00,28.50 L 22.00,28.50 L 23.00,28.50 L 23.50,29.00 L 23.50,30.00 L 24.00,30.50 L 24.50,31.00 L 24.50,32.00 L 24.00,32.50 L 23.50,33.00 L 23.50,34.00 L 23.00,34.50 L 22.50,35.00 L 22.00,35.50 Z" fill="rgb(221,221,221)" stroke="none" /><path d="M 14.00,35.50 L 13.00,35.50 L 12.00,35.50 L 11.00,35.50 L 10.00,35.50 L 9.00,35.50 L 8.50,35.00 L 8.50,34.00 L 8.50,33.00 L 8.50,32.00 L 8.50,31.00 L 8.50,30.00 L 9.00,29.50 L 10.00,29.50 L 11.00,29.50 L 12.00,29.50 L 13.00,29.50 L 13.50,30.00 L 14.00,30.50 L 14.50,31.00 L 15.00,31.50 L 15.50,32.00 L 15.50,33.00 L 15.00,33.50 L 14.50,34.00 L 14.50,35.00 L 14.00,35.50 Z" fill="rgb(221,221,221)" stroke="none" /><path d="M 34.00,34.50 L 33.00,34.50 L 32.00,34.50 L 31.00,34.50 L 30.00,34.50 L 29.50,34.00 L 29.50,33.00 L 29.50,32.00 L 29.50,31.00 L 29.50,30.00 L 30.00,29.50 L 31.00,29.50 L 31.50,30.00 L 32.00,30.50 L 33.00,30.50 L 34.00,30.50 L 34.50,31.00 L 34.50,32.00 L 34.50,33.00 L 34.50,34.00 L 34.00,34.50 Z" fill="rgb(221,221,221)" stroke="none" /><path d="M 36.00,35.50 L 35.50,35.00 L 35.00,34.50 L 34.50,34.00 L 34.50,33.00 L 34.50,32.00 L 34.50,31.00 L 35.00,30.50 L 35.50,30.00 L 36.00,29.50 L 37.00,29.50 L 38.00,29.50 L 39.00,29.50 L 39.50,30.00 L 39.50,31.00 L 39.50,32.00 L 39.50,33.00 L 39.50,34.00 L 39.00,34.50 L 38.00,34.50 L 37.00,34.50 L 36.50,35.00 L 36.00,35.50 Z" fill="rgb(221,221,221)" stroke="none" /><path d="M 43.00,35.50 L 42.00,35.50 L 41.00,35.50 L 40.50,35.00 L 40.00,34.50 L 39.50,34.00 L 39.50,33.00 L 39.50,32.00 L 39.50,31.00 L 40.00,30.50 L 41.00,30.50 L 42.00,30.50 L 43.00,30.50 L 43.50,31.00 L 44.00,31.50 L 44.50,32.00 L 45.00,32.50 L 45.50,33.00 L 45.50,34.00 L 45.00,34.50 L 44.00,34.50 L 43.50,35.00 L 43.00,35.50 Z" fill="rgb(221,221,221)" stroke="none" /><path d="M 51.00,36.50 L 50.00,36.50 L 49.00,36.50 L 48.00,36.50 L 47.50,36.00 L 47.00,35.50 L 46.50,35.00 L 46.00,34.50 L 45.50,34.00 L 46.00,33.50 L 46.50,33.00 L 47.00,32.50 L 47.50,32.00 L 48.00,31.50 L 48.50,31.00 L 49.00,30.50 L 49.50,31.00 L 50.00,31.50 L 51.00,31.50 L 52.00,31.50 L 52.50,32.00 L 52.50,33.00 L 52.50,34.00 L 52.50,35.00 L 52.00,35.50 L 51.50,36.00 L 51.00,36.50 Z" fill="rgb(221,221,221)" stroke="none" /><path d="M 57.00,36.50 L 56.00,36.50 L 55.00,36.50 L 54.00,36.50 L 53.50,36.00 L 53.00,35.50 L 52.50,35.00 L 52.50,34.00 L 52.50,33.00 L 52.50,32.00 L 53.00,31.50 L 53.50,31.00 L 54.00,30.50 L 55.00,30.50 L 56.00,30.50 L 57.00,30.50 L 58.00,30.50 L 59.00,30.50 L 59.50,31.00 L 59.50,32.00 L 59.50,33.00 L 59.50,34.00 L 59.50,35.00 L 59.00,35.50 L 58.00,35.50 L 57.50,36.00 L 57.00,36.50 Z" fill="rgb(221,221,221)" stroke="none" /><path d="M 29.00,36.50 L 28.00,36.50 L 27.00,36.50 L 26.50,36.00 L 26.00,35.50 L 25.00,35.50 L 24.50,35.00 L 24.00,34.50 L 23.50,34.00 L 23.50,33.00 L 24.00,32.50 L 24.50,32.00 L 25.00,31.50 L 26.00,31.50 L 27.00,31.50 L 28.00,31.50 L 29.00,31.50 L 29.50,32.00 L 29.50,33.00 L 29.50,34.00 L 29.50,35.00 L 29.50,36.00 L 29.00,36.50 Z" fill="rgb(221,221,221)" stroke="none" /><path d="M 63.00,38.50 L 62.00,38.50 L 61.00,38.50 L 60.00,38.50 L 59.50,38.00 L 59.50,37.00 L 59.50,36.00 L 59.50,35.00 L 59.50,34.00 L 59.50,33.00 L 59.50,32.00 L 60.00,31.50 L 61.00,31.50 L 62.00,31.50 L 63.00,31.50 Z" fill="rgb(192,192,192)" stroke="none" /><path d="M 8.00,39.50 L 7.00,39.50 L 6.00,39.50 L 5.00,39.50 L 4.50,39.00 L 4.50,38.00 L 4.50,37.00 L 4.50,36.00 L 4.50,35.00 L 4.50,34.00 L 4.50,33.00 L 5.00,32.50 L 6.00,32.50 L 7.00,32.50 L 8.00,32.50 L 8.50,33.00 L 8.50,34.00 L 8.50,35.00 L 8.50,36.00 L 8.50,37.00 L 8.50,38.00 L 8.50,39.00 L 8.00,39.50 Z" fill="rgb(192,192,192)" stroke="none" /><path d="M 18.00,39.50 L 17.50,39.00 L 17.00,38.50 L 16.00,38.50 L 15.50,38.00 L 15.00,37.50 L 14.50,37.00 L 14.50,36.00 L 14.50,35.00 L 14.50,34.00 L 15.00,33.50 L 15.50,33.00 L 16.00,32.50 L 17.00,32.50 L 18.00,32.50 L 18.50,33.00 L 19.00,33.50 L 19.50,34.00 L 20.00,34.50 L 21.00,34.50 L 21.50,35.00 L 21.50,36.00 L 21.50,37.00 L 21.00,37.50 L 20.00,37.50 L 19.50,38.00 L 19.00,38.50 L 18.50,39.00 L 18.00,39.50 Z" fill="rgb(221,221,221)" stroke="none" /><path d="M 26.00,40.50 L 25.00,40.50 L 24.50,40.00 L 24.00,39.50 L 23.50,39.00 L 23.00,38.50 L 22.50,38.00 L 22.00,37.50 L 21.50,37.00 L 21.50,36.00 L 22.00,35.50 L 22.50,35.00 L 23.00,34.50 L 24.00,34.50 L 24.50,35.00 L 25.00,35.50 L 26.00,35.50 L 26.50,36.00 L 27.00,36.50 L 28.00,36.50 L 28.50,37.00 L 28.50,38.00 L 28.00,38.50 L 27.50,39.00 L 27.00,39.50 L 26.50,40.00 L 26.00,40.50 Z" fill="rgb(221,221,221)" stroke="none" /><path d="M 33.00,39.50 L 32.00,39.50 L 31.00,39.50 L 30.50,39.00 L 30.00,38.50 L 29.50,38.00 L 29.00,37.50 L 28.50,37.00 L 29.00,36.50 L 29.50,36.00 L 29.50,35.00 L 30.00,34.50 L 31.00,34.50 L 32.00,34.50 L 33.00,34.50 L 34.00,34.50 L 35.00,34.50 L 35.50,35.00 L 35.50,36.00 L 35.50,37.00 L 35.50,38.00 L 35.00,38.50 L 34.00,38.50 L 33.50,39.00 L 33.00,39.50 Z" fill="rgb(221,221,221)" stroke="none" /><path d="M 38.00,40.50 L 37.50,40.00 L 37.00,39.50 L 36.50,39.00 L 36.00,38.50 L 35.50,38.00 L 35.50,37.00 L 35.50,36.00 L 36.00,35.50 L 36.50,35.00 L 37.00,34.50 L 38.00,34.50 L 39.00,34.50 L 40.00,34.50 L 40.50,35.00 L 41.00,35.50 L 41.50,36.00 L 41.50,37.00 L 41.50,38.00 L 41.50,39.00 L 41.00,39.50 L 40.00,39.50 L 39.00,39.50 L 38.50,40.00 L 38.00,40.50 Z" fill="rgb(221,221,221)" stroke="none" /><path d="M 46.00,40.50 L 45.00,40.50 L 44.00,40.50 L 43.00,40.50 L 42.50,40.00 L 42.00,39.50 L 41.50,39.00 L 41.50,38.00 L 41.50,37.00 L 41.50,36.00 L 42.00,35.50 L 43.00,35.50 L 43.50,35.00 L 44.00,34.50 L 45.00,34.50 L 46.00,34.50 L 46.50,35.00 L 47.00,35.50 L 47.50,36.00 L 47.50,37.00 L 47.50,38.00 L 47.50,39.00 L 47.00,39.50 L 46.50,40.00 L 46.00,40.50 Z" fill="rgb(221,221,221)" stroke="none" /><path d="M 13.00,40.50 L 12.00,40.50 L 11.00,40.50 L 10.00,40.50 L 9.00,40.50 L 8.50,40.00 L 8.50,39.00 L 8.50,38.00 L 8.50,37.00 L 8.50,36.00 L 9.00,35.50 L 10.00,35.50 L 11.00,35.50 L 12.00,35.50 L 13.00,35.50 L 14.00,35.50 L 14.50,36.00 L 14.50,37.00 L 15.00,37.50 L 15.50,38.00 L 15.00,38.50 L 14.50,39.00 L 14.00,39.50 L 13.50,40.00 L 13.00,40.50 Z" fill="rgb(221,221,221)" stroke="none" /><path d="M 53.00,41.50 L 52.00,41.50 L 51.00,41.50 L 50.00,41.50 L 49.00,41.50 L 48.50,41.00 L 48.00,40.50 L 47.50,40.00 L 47.50,39.00 L 47.50,38.00 L 47.50,37.00 L 48.00,36.50 L 49.00,36.50 L 50.00,36.50 L 51.00,36.50 L 51.50,36.00 L 52.00,35.50 L 53.00,35.50 L 53.50,36.00 L 53.50,37.00 L 53.50,38.00 L 53.50,39.00 L 53.50,40.00 L 53.50,41.00 L 53.00,41.50 Z" fill="rgb(221,221,221)" stroke="none" /><path d="M 59.00,41.50 L 58.00,41.50 L 57.00,41.50 L 56.00,41.50 L 55.00,41.50 L 54.00,41.50 L 53.50,41.00 L 53.50,40.00 L 53.50,39.00 L 53.50,38.00 L 53.50,37.00 L 54.00,36.50 L 55.00,36.50 L 56.00,36.50 L 57.00,36.50 L 57.50,36.00 L 58.00,35.50 L 59.00,35.50 L 59.50,36.00 L 59.50,37.00 L 59.50,38.00 L 59.50,39.00 L 59.50,40.00 L 59.50,41.00 L 59.00,41.50 Z" fill="rgb(221,221,221)" stroke="none" /><path d="M 23.00,43.50 L 22.00,43.50 L 21.00,43.50 L 20.50,43.00 L 20.00,42.50 L 19.50,42.00 L 19.00,41.50 L 18.50,41.00 L 18.50,40.00 L 18.50,39.00 L 19.00,38.50 L 19.50,38.00 L 20.00,37.50 L 21.00,37.50 L 22.00,37.50 L 22.50,38.00 L 23.00,38.50 L 23.50,39.00 L 24.00,39.50 L 24.50,40.00 L 25.00,40.50 L 25.50,41.00 L 25.00,41.50 L 24.50,42.00 L 24.00,42.50 L 23.50,43.00 L 23.00,43.50 Z" fill="rgb(221,221,221)" stroke="none" /><path d="M 30.00,44.50 L 29.00,44.50 L 28.50,44.00 L 28.00,43.50 L 27.50,43.00 L 27.00,42.50 L 26.50,42.00 L 26.00,41.50 L 25.50,41.00 L 26.00,40.50 L 26.50,40.00 L 27.00,39.50 L 27.50,39.00 L 28.00,38.50 L 28.50,38.00 L 29.00,37.50 L 29.50,38.00 L 30.00,38.50 L 30.50,39.00 L 31.00,39.50 L 31.50,40.00 L 31.50,41.00 L 31.50,42.00 L 31.50,43.00 L 31.00,43.50 L 30.50,44.00 L 30.00,44.50 Z" fill="rgb(221,221,221)" stroke="none" /><path d="M 16.00,45.50 L 15.00,45.50 L 14.50,45.00 L 14.50,44.00 L 14.00,43.50 L 13.50,43.00 L 13.50,42.00 L 13.50,41.00 L 13.50,40.00 L 14.00,39.50 L 14.50,39.00 L 15.00,38.50 L 16.00,38.50 L 17.00,38.50 L 17.50,39.00 L 18.00,39.50 L 18.50,40.00 L 18.50,41.00 L 19.00,41.50 L 19.50,42.00 L 19.00,42.50 L 18.50,43.00 L 18.00,43.50 L 17.50,44.00 L 17.00,44.50 L 16.50,45.00 L 16.00,45.50 Z" fill="rgb(221,221,221)" stroke="none" /><path d="M 35.00,45.50 L 34.50,45.00 L 34.00,44.50 L 33.00,44.50 L 32.50,44.00 L 32.00,43.50 L 31.50,43.00 L 31.50,42.00 L 31.50,41.00 L 31.50,40.00 L 32.00,39.50 L 33.00,39.50 L 33.50,39.00 L 34.00,38.50 L 35.00,38.50 L 36.00,38.50 L 36.50,39.00 L 37.00,39.50 L 37.50,40.00 L 37.50,41.00 L 37.50,42.00 L 37.50,43.00 L 37.00,43.50 L 36.50,44.00 L 36.00,44.50 L 35.50,45.00 L 35.00,45.50 Z" fill="rgb(221,221,221)" stroke="none" /><path d="M 63.00,47.50 L 62.50,47.00 L 62.00,46.50 L 61.00,46.50 L 60.00,46.50 L 59.50,46.00 L 59.50,45.00 L 59.50,44.00 L 59.50,43.00 L 59.50,42.00 L 59.50,41.00 L 59.50,40.00 L 59.50,39.00 L 60.00,38.50 L 61.00,38.50 L 62.00,38.50 L 63.00,38.50 Z" fill="rgb(192,192,192)" stroke="none" /><path d="M 8.00,47.50 L 7.00,47.50 L 6.00,47.50 L 5.00,47.50 L 4.50,47.00 L 4.50,46.00 L 4.50,45.00 L 4.50,44.00 L 4.50,43.00 L 4.50,42.00 L 4.50,41.00 L 4.50,40.00 L 5.00,39.50 L 6.00,39.50 L 7.00,39.50 L 8.00,39.50 L 8.50,40.00 L 8.50,41.00 L 8.50,42.00 L 8.50,43.00 L 8.50,44.00 L 8.50,45.00 L 8.50,46.00 L 8.50,47.00 L 8.00,47.50 Z" fill="rgb(192,192,192)" stroke="none" /><path d="M 40.00,46.50 L 39.50,46.00 L 39.00,45.50 L 38.00,45.50 L 37.50,45.00 L 37.00,44.50 L 36.50,44.00 L 37.00,43.50 L 37.50,43.00 L 37.50,42.00 L 37.50,41.00 L 38.00,40.50 L 38.50,40.00 L 39.00,39.50 L 40.00,39.50 L 41.00,39.50 L 42.00,39.50 L 42.50,40.00 L 42.50,41.00 L 42.50,42.00 L 42.50,43.00 L 42.50,44.00 L 42.50,45.00 L 42.00,45.50 L 41.00,45.50 L 40.50,46.00 L 40.00,46.50 Z" fill="rgb(221,221,221)" stroke="none" /><path d="M 46.00,46.50 L 45.00,46.50 L 44.50,46.00 L 44.00,45.50 L 43.00,45.50 L 42.50,45.00 L 42.50,44.00 L 42.50,43.00 L 42.50,42.00 L 42.50,41.00 L 43.00,40.50 L 44.00,40.50 L 45.00,40.50 L 46.00,40.50 L 46.50,40.00 L 47.00,39.50 L 47.50,40.00 L 48.00,40.50 L 48.50,41.00 L 49.00,41.50 L 49.50,42.00 L 49.00,42.50 L 48.50,43.00 L 48.50,44.00 L 48.50,45.00 L 48.00,45.50 L 47.00,45.50 L 46.50,46.00 L 46.00,46.50 Z" fill="rgb(221,221,221)" stroke="none" /><path d="M 12.00,46.50 L 11.00,46.50 L 10.00,46.50 L 9.00,46.50 L 8.50,46.00 L 8.50,45.00 L 8.50,44.00 L 8.50,43.00 L 8.50,42.00 L 8.50,41.00 L 9.00,40.50 L 10.00,40.50 L 11.00,40.50 L 12.00,40.50 L 13.00,40.50 L 13.50,41.00 L 13.50,42.00 L 13.50,43.00 L 14.00,43.50 L 14.50,44.00 L 14.50,45.00 L 14.00,45.50 L 13.00,45.50 L 12.50,46.00 L 12.00,46.50 Z" fill="rgb(221,221,221)" stroke="none" /><path d="M 26.00,47.50 L 25.00,47.50 L 24.50,47.00 L 24.00,46.50 L 23.00,46.50 L 22.50,46.00 L 22.50,45.00 L 22.50,44.00 L 23.00,43.50 L 23.50,43.00 L 24.00,42.50 L 24.50,42.00 L 25.00,41.50 L 26.00,41.50 L 26.50,42.00 L 27.00,42.50 L 27.50,43.00 L 28.00,43.50 L 28.50,44.00 L 28.50,45.00 L 28.50,46.00 L 28.00,46.50 L 27.00,46.50 L 26.50,47.00 L 26.00,47.50 Z" fill="rgb(221,221,221)" stroke="none" /><path d="M 52.00,48.50 L 51.50,48.00 L 51.00,47.50 L 50.50,47.00 L 50.00,46.50 L 49.00,46.50 L 48.50,46.00 L 48.50,45.00 L 48.50,44.00 L 48.50,43.00 L 49.00,42.50 L 49.50,42.00 L 50.00,41.50 L 51.00,41.50 L 52.00,41.50 L 53.00,41.50 L 53.50,42.00 L 54.00,42.50 L 54.50,43.00 L 54.50,44.00 L 54.50,45.00 L 54.50,46.00 L 54.00,46.50 L 53.50,47.00 L 53.00,47.50 L 52.50,48.00 L 52.00,48.50 Z" fill="rgb(221,221,221)" stroke="none" /><path d="M 59.00,47.50 L 58.50,47.00 L 58.00,46.50 L 57.00,46.50 L 56.00,46.50 L 55.00,46.50 L 54.50,46.00 L 54.50,45.00 L 54.50,44.00 L 54.50,43.00 L 54.00,42.50 L 53.50,42.00 L 54.00,41.50 L 55.00,41.50 L 56.00,41.50 L 57.00,41.50 L 58.00,41.50 L 59.00,41.50 L 59.50,42.00 L 59.50,43.00 L 59.50,44.00 L 59.50,45.00 L 59.50,46.00 L 59.50,47.00 L 59.00,47.50 Z" fill="rgb(221,221,221)" stroke="none" /><path d="M 20.00,48.50 L 19.50,48.00 L 19.00,47.50 L 18.50,47.00 L 18.00,46.50 L 17.00,46.50 L 16.50,46.00 L 16.50,45.00 L 17.00,44.50 L 17.50,44.00 L 18.00,43.50 L 18.50,43.00 L 19.00,42.50 L 20.00,42.50 L 20.50,43.00 L 21.00,43.50 L 22.00,43.50 L 22.50,44.00 L 22.50,45.00 L 22.50,46.00 L 22.00,46.50 L 21.50,47.00 L 21.00,47.50 L 20.50,48.00 L 20.00,48.50 Z" fill="rgb(221,221,221)" stroke="none" /><path d="M 33.00,51.50 L 32.00,51.50 L 31.50,51.00 L 31.50,50.00 L 31.00,49.50 L 30.50,49.00 L 30.00,48.50 L 29.50,48.00 L 29.50,47.00 L 29.00,46.50 L 28.50,46.00 L 28.50,45.00 L 29.00,44.50 L 30.00,44.50 L 30.50,44.00 L 31.00,43.50 L 32.00,43.50 L 32.50,44.00 L 33.00,44.50 L 34.00,44.50 L 34.50,45.00 L 34.50,46.00 L 34.50,47.00 L 34.50,48.00 L 34.00,48.50 L 33.50,49.00 L 33.50,50.00 L 33.50,51.00 L 33.00,51.50 Z" fill="rgb(221,221,221)" stroke="none" /><path d="M 39.00,51.50 L 38.00,51.50 L 37.00,51.50 L 36.00,51.50 L 35.00,51.50 L 34.00,51.50 L 33.50,51.00 L 33.50,50.00 L 33.50,49.00 L 34.00,48.50 L 34.50,48.00 L 34.50,47.00 L 34.50,46.00 L 35.00,45.50 L 35.50,45.00 L 36.00,44.50 L 37.00,44.50 L 37.50,45.00 L 38.00,45.50 L 39.00,45.50 L 39.50,46.00 L 39.50,47.00 L 39.50,48.00 L 39.50,49.00 L 39.50,50.00 L 39.50,51.00 L 39.00,51.50 Z" fill="rgb(221,221,221)" stroke="none" /><path d="M 14.00,51.50 L 13.00,51.50 L 12.00,51.50 L 11.00,51.50 L 10.00,51.50 L 9.00,51.50 L 8.50,51.00 L 8.50,50.00 L 8.50,49.00 L 8.50,48.00 L 8.50,47.00 L 9.00,46.50 L 10.00,46.50 L 11.00,46.50 L 12.00,46.50 L 12.50,46.00 L 13.00,45.50 L 14.00,45.50 L 14.50,46.00 L 14.50,47.00 L 14.50,48.00 L 14.50,49.00 L 14.50,50.00 L 14.50,51.00 L 14.00,51.50 Z" fill="rgb(221,221,221)" stroke="none" /><path d="M 20.00,51.50 L 19.00,51.50 L 18.00,51.50 L 17.00,51.50 L 16.00,51.50 L 15.00,51.50 L 14.50,51.00 L 14.50,50.00 L 14.50,49.00 L 14.50,48.00 L 14.50,47.00 L 14.50,46.00 L 15.00,45.50 L 16.00,45.50 L 16.50,46.00 L 17.00,46.50 L 18.00,46.50 L 18.50,47.00 L 19.00,47.50 L 19.50,48.00 L 20.00,48.50 L 20.50,49.00 L 20.50,50.00 L 20.50,51.00 L 20.00,51.50 Z" fill="rgb(221,221,221)" stroke="none" /><path d="M 45.00,51.50 L 44.00,51.50 L 43.00,51.50 L 42.00,51.50 L 41.00,51.50 L 40.00,51.50 L 39.50,51.00 L 39.50,50.00 L 39.50,49.00 L 39.50,48.00 L 39.50,47.00 L 40.00,46.50 L 40.50,46.00 L 41.00,45.50 L 42.00,45.50 L 43.00,45.50 L 44.00,45.50 L 44.50,46.00 L 45.00,46.50 L 45.50,47.00 L 45.50,48.00 L 45.50,49.00 L 45.50,50.00 L 45.50,51.00 L 45.00,51.50 Z" fill="rgb(221,221,221)" stroke="none" /><path d="M 51.00,51.50 L 50.00,51.50 L 49.00,51.50 L 48.00,51.50 L 47.00,51.50 L 46.00,51.50 L 45.50,51.00 L 45.50,50.00 L 45.50,49.00 L 45.50,48.00 L 45.50,47.00 L 46.00,46.50 L 46.50,46.00 L 47.00,45.50 L 48.00,45.50 L 48.50,46.00 L 49.00,46.50 L 50.00,46.50 L 50.50,47.00 L 51.00,47.50 L 51.50,48.00 L 51.50,49.00 L 51.50,50.00 L 51.50,51.00 L 51.00,51.50 Z" fill="rgb(221,221,221)" stroke="none" /><path d="M 25.00,51.50 L 24.00,51.50 L 23.00,51.50 L 22.00,51.50 L 21.00,51.50 L 20.50,51.00 L 20.50,50.00 L 20.50,49.00 L 20.50,48.00 L 21.00,47.50 L 21.50,47.00 L 22.00,46.50 L 23.00,46.50 L 24.00,46.50 L 24.50,47.00 L 25.00,47.50 L 25.50,48.00 L 25.50,49.00 L 25.50,50.00 L 25.50,51.00 L 25.00,51.50 Z" fill="rgb(221,221,221)" stroke="none" /><path d="M 31.00,51.50 L 30.00,51.50 L 29.00,51.50 L 28.00,51.50 L 27.00,51.50 L 26.00,51.50 L 25.50,51.00 L 25.50,50.00 L 25.50,49.00 L 25.50,48.00 L 26.00,47.50 L 26.50,47.00 L 27.00,46.50 L 28.00,46.50 L 29.00,46.50 L 29.50,47.00 L 29.50,48.00 L 30.00,48.50 L 30.50,49.00 L 31.00,49.50 L 31.50,50.00 L 31.50,51.00 L 31.00,51.50 Z" fill="rgb(221,221,221)" stroke="none" /><path d="M 59.00,51.50 L 58.00,51.50 L 57.00,51.50 L 56.00,51.50 L 55.00,51.50 L 54.00,51.50 L 53.00,51.50 L 52.00,51.50 L 51.50,51.00 L 51.50,50.00 L 51.50,49.00 L 52.00,48.50 L 52.50,48.00 L 53.00,47.50 L 53.50,47.00 L 54.00,46.50 L 55.00,46.50 L 56.00,46.50 L 57.00,46.50 L 58.00,46.50 L 58.50,47.00 L 59.00,47.50 L 59.50,48.00 L 59.50,49.00 L 59.50,50.00 L 59.50,51.00 L 59.00,51.50 Z" fill="rgb(221,221,221)" stroke="none" /><path d="M 63.00,55.50 L 62.00,55.50 L 61.00,55.50 L 60.00,55.50 L 59.00,55.50 L 58.50,55.00 L 58.00,54.50 L 57.50,54.00 L 57.50,53.00 L 57.50,52.00 L 58.00,51.50 L 59.00,51.50 L 59.50,51.00 L 59.50,50.00 L 59.50,49.00 L 59.50,48.00 L 59.50,47.00 L 60.00,46.50 L 61.00,46.50 L 62.00,46.50 L 62.50,47.00 L 63.00,47.50 Z" fill="rgb(192,192,192)" stroke="none" /><path d="M 10.00,55.50 L 9.00,55.50 L 8.00,55.50 L 7.00,55.50 L 6.00,55.50 L 5.00,55.50 L 4.50,55.00 L 4.50,54.00 L 4.50,53.00 L 4.50,52.00 L 4.50,51.00 L 4.50,50.00 L 4.50,49.00 L 4.50,48.00 L 5.00,47.50 L 6.00,47.50 L 7.00,47.50 L 8.00,47.50 L 8.50,48.00 L 8.50,49.00 L 8.50,50.00 L 8.50,51.00 L 9.00,51.50 L 10.00,51.50 L 11.00,51.50 L 11.50,52.00 L 11.50,53.00 L 11.50,54.00 L 11.00,54.50 L 10.50,55.00 L 10.00,55.50 Z" fill="rgb(192,192,192)" stroke="none" /><path d="M 19.00,55.50 L 18.00,55.50 L 17.00,55.50 L 16.00,55.50 L 15.00,55.50 L 14.00,55.50 L 13.00,55.50 L 12.00,55.50 L 11.00,55.50 L 10.50,55.00 L 11.00,54.50 L 11.50,54.00 L 11.50,53.00 L 11.50,52.00 L 12.00,51.50 L 13.00,51.50 L 14.00,51.50 L 15.00,51.50 L 16.00,51.50 L 17.00,51.50 L 18.00,51.50 L 19.00,51.50 L 19.50,52.00 L 19.50,53.00 L 19.50,54.00 L 19.50,55.00 L 19.00,55.50 Z" fill="rgb(192,192,192)" stroke="none" /><path d="M 29.00,55.50 L 28.00,55.50 L 27.00,55.50 L 26.00,55.50 L 25.00,55.50 L 24.00,55.50 L 23.00,55.50 L 22.00,55.50 L 21.00,55.50 L 20.00,55.50 L 19.50,55.00 L 19.50,54.00 L 19.50,53.00 L 19.50,52.00 L 20.00,51.50 L 21.00,51.50 L 22.00,51.50 L 23.00,51.50 L 24.00,51.50 L 25.00,51.50 L 26.00,51.50 L 27.00,51.50 L 28.00,51.50 L 29.00,51.50 L 29.50,52.00 L 29.50,53.00 L 29.50,54.00 L 29.50,55.00 L 29.00,55.50 Z" fill="rgb(192,192,192)" stroke="none" /><path d="M 39.00,55.50 L 38.00,55.50 L 37.00,55.50 L 36.00,55.50 L 35.00,55.50 L 34.00,55.50 L 33.00,55.50 L 32.00,55.50 L 31.00,55.50 L 30.00,55.50 L 29.50,55.00 L 29.50,54.00 L 29.50,53.00 L 29.50,52.00 L 30.00,51.50 L 31.00,51.50 L 32.00,51.50 L 33.00,51.50 L 34.00,51.50 L 35.00,51.50 L 36.00,51.50 L 37.00,51.50 L 38.00,51.50 L 39.00,51.50 L 39.50,52.00 L 39.50,53.00 L 39.50,54.00 L 39.50,55.00 L 39.00,55.50 Z" fill="rgb(192,192,192)" stroke="none" /><path d="M 49.00,55.50 L 48.00,55.50 L 47.00,55.50 L 46.00,55.50 L 45.00,55.50 L 44.00,55.50 L 43.00,55.50 L 42.00,55.50 L 41.00,55.50 L 40.00,55.50 L 39.50,55.00 L 39.50,54.00 L 39.50,53.00 L 39.50,52.00 L 40.00,51.50 L 41.00,51.50 L 42.00,51.50 L 43.00,51.50 L 44.00,51.50 L 45.00,51.50 L 46.00,51.50 L 47.00,51.50 L 48.00,51.50 L 49.00,51.50 L 49.50,52.00 L 49.50,53.00 L 49.50,54.00 L 49.50,55.00 L 49.00,55.50 Z" fill="rgb(192,192,192)" stroke="none" /><path d="M 58.00,55.50 L 57.00,55.50 L 56.00,55.50 L 55.00,55.50 L 54.00,55.50 L 53.00,55.50 L 52.00,55.50 L 51.00,55.50 L 50.00,55.50 L 49.50,55.00 L 49.50,54.00 L 49.50,53.00 L 49.50,52.00 L 50.00,51.50 L 51.00,51.50 L 52.00,51.50 L 53.00,51.50 L 54.00,51.50 L 55.00,51.50 L 56.00,51.50 L 57.00,51.50 L 57.50,52.00 L 57.50,53.00 L 57.50,54.00 L 58.00,54.50 L 58.50,55.00 L 58.00,55.50 Z" fill="rgb(192,192,192)" stroke="none" /></svg>