<?xml version="1.0" encoding="utf-8" ?>
<svg baseProfile="full" height="64" version="1.1" width="64" xmlns="http://www.w3.org/2000/svg" xmlns:ev="http://www.w3.org/2001/xml-events" xmlns:xlink="http://www.w3.org/1999/xlink"><defs /><path d="M 49.50,0.00 L 49.50,1.00 L 49.50,2.00 L 49.50,3.00 L 49.00,3.50 L 48.00,3.50 L 47.50,4.00 L 47.00,4.50 L 46.00,4.50 L 45.00,4.50 L 44.50,4.00 L 44.00,3.50 L 43.50,3.00 L 43.50,2.00 L 43.50,1.00 L 43.50,0.00 Z" fill="rgb(128,128,128)" stroke="none" /><path d="M 53.50,0.00 L 53.50,1.00 L 54.00,1.50 L 54.50,2.00 L 54.50,3.00 L 54.00,3.50 L 53.00,3.50 L 52.00,3.50 L 51.00,3.50 L 50.00,3.50 L 49.50,3.00 L 49.50,2.00 L 49.50,1.00 L 49.50,0.00 Z" fill="rgb(128,128,128)" stroke="none" /><path d="M 58.50,0.00 L 58.50,1.00 L 58.50,2.00 L 58.50,3.00 L 58.00,3.50 L 57.00,3.50 L 56.00,3.50 L 55.00,3.50 L 54.50,3.00 L 54.50,2.00 L 54.00,1.50 L 53.50,1.00 L 53.50,0.00 Z" fill="rgb(128,128,128)" stroke="none" /><path d="M 63.00,4.50 L 62.00,4.50 L 61.00,4.50 L 60.00,4.50 L 59.50,4.00 L 59.00,3.50 L 58.50,3.00 L 58.50,2.00 L 58.50,1.00 L 58.50,0.00 Z" fill="rgb(128,128,128)" stroke="none" /><path d="M 23.00,7.50 L 22.00,7.50 L 21.00,7.50 L 20.00,7.50 L 19.50,7.00 L 19.50,6.00 L 19.50,5.00 L 19.50,4.00 L 20.00,3.50 L 21.00,3.50 L 22.00,3.50 L 23.00,3.50 L 23.50,4.00 L 23.50,5.00 L 23.50,6.00 L 23.50,7.00 L 23.00,7.50 Z" fill="rgb(213,246,207)" stroke="none" /><path d="M 25.00,14.50 L 24.00,14.50 L 23.00,14.50 L 22.00,14.50 L 21.50,14.00 L 21.00,13.50 L 20.50,13.00 L 20.00,12.50 L 19.00,12.50 L 18.50,12.00 L 19.00,11.50 L 19.50,11.00 L 19.50,10.00 L 19.50,9.00 L 19.50,8.00 L 20.00,7.50 L 21.00,7.50 L 22.00,7.50 L 23.00,7.50 L 23.50,7.00 L 23.50,6.00 L 23.50,5.00 L 23.50,4.00 L 24.00,3.50 L 25.00,3.50 L 26.00,3.50 L 27.00,3.50 L 27.50,4.00 L 27.50,5.00 L 27.50,6.00 L 27.50,7.00 L 27.50,8.00 L 27.50,9.00 L 27.00,9.50 L 26.50,10.00 L 26.50,11.00 L 26.50,12.00 L 26.00,12.50 L 25.50,13.00 L 25.50,14.00 L 25.00,14.50 Z" fill="rgb(64,255,64)" stroke="none" /><path d="M 31.00,7.50 L 30.00,7.50 L 29.00,7.50 L 28.00,7.50 L 27.50,7.00 L 27.50,6.00 L 27.50,5.00 L 27.50,4.00 L 28.00,3.50 L 29.00,3.50 L 30.00,3.50 L 31.00,3.50 L 31.50,4.00 L 31.50,5.00 L 31.50,6.00 L 31.50,7.00 L 31.00,7.50 Z" fill="rgb(213,246,207)" stroke="none" /><path d="M 47.00,9.50 L 46.00,9.50 L 45.00,9.50 L 44.00,9.50 L 43.50,9.00 L 43.50,8.00 L 43.50,7.00 L 43.50,6.00 L 43.50,5.00 L 43.50,4.00 L 44.00,3.50 L 44.50,4.00 L 45.00,4.50 L 46.00,4.50 L 47.00,4.50 L 47.50,5.00 L 47.50,6.00 L 47.50,7.00 L 47.50,8.00 L 47.50,9.00 L 47.00,9.50 Z" fill="rgb(128,128,128)" stroke="none" /><path d="M 53.00,8.50 L 52.00,8.50 L 51.00,8.50 L 50.00,8.50 L 49.00,8.50 L 48.00,8.50 L 47.50,8.00 L 47.50,7.00 L 47.50,6.00 L 47.50,5.00 L 47.50,4.00 L 48.00,3.50 L 49.00,3.50 L 50.00,3.50 L 51.00,3.50 L 52.00,3.50 L 53.00,3.50 L 53.50,4.00 L 53.50,5.00 L 53.50,6.00 L 53.50,7.00 L 53.50,8.00 L 53.00,8.50 Z" fill="rgb(192,192,192)" stroke="none" /><path d="M 59.00,7.50 L 58.00,7.50 L 57.00,7.50 L 56.00,7.50 L 55.00,7.50 L 54.00,7.50 L 53.50,7.00 L 53.50,6.00 L 53.50,5.00 L 53.50,4.00 L 54.00,3.50 L 55.00,3.50 L 56.00,3.50 L 57.00,3.50 L 58.00,3.50 L 59.00,3.50 L 59.50,4.00 L 59.50,5.00 L 59.50,6.00 L 59.50,7.00 L 59.00,7.50 Z" fill="rgb(192,192,192)" stroke="none" /><path d="M 63.00,9.50 L 62.00,9.50 L 61.00,9.50 L 60.00,9.50 L 59.50,9.00 L 59.50,8.00 L 59.50,7.00 L 59.50,6.00 L 59.50,5.00 L 60.00,4.50 L 61.00,4.50 L 62.00,4.50 L 63.00,4.50 Z" fill="rgb(128,128,128)" stroke="none" /><path d="M 19.00,11.50 L 18.00,11.50 L 17.00,11.50 L 16.00,11.50 L 15.50,11.00 L 15.50,10.00 L 15.50,9.00 L 15.50,8.00 L 16.00,7.50 L 17.00,7.50 L 18.00,7.50 L 19.00,7.50 L 19.50,8.00 L 19.50,9.00 L 19.50,10.00 L 19.50,11.00 L 19.00,11.50 Z" fill="rgb(213,246,207)" stroke="none" /><path d="M 31.00,18.50 L 30.50,18.00 L 30.00,17.50 L 29.50,17.00 L 29.00,16.50 L 28.50,16.00 L 28.00,15.50 L 27.00,15.50 L 26.50,15.00 L 26.00,14.50 L 25.50,14.00 L 25.50,13.00 L 26.00,12.50 L 26.50,12.00 L 26.50,11.00 L 26.50,10.00 L 27.00,9.50 L 27.50,9.00 L 27.50,8.00 L 28.00,7.50 L 29.00,7.50 L 30.00,7.50 L 31.00,7.50 L 31.50,8.00 L 31.50,9.00 L 31.50,10.00 L 31.50,11.00 L 32.00,11.50 L 33.00,11.50 L 34.00,11.50 L 35.00,11.50 L 35.50,12.00 L 35.50,13.00 L 35.50,14.00 L 35.50,15.00 L 35.00,15.50 L 34.00,15.50 L 33.00,15.50 L 32.00,15.50 L 31.50,16.00 L 31.50,17.00 L 31.50,18.00 L 31.00,18.50 Z" fill="rgb(64,255,64)" stroke="none" /><path d="M 35.00,11.50 L 34.00,11.50 L 33.00,11.50 L 32.00,11.50 L 31.50,11.00 L 31.50,10.00 L 31.50,9.00 L 31.50,8.00 L 32.00,7.50 L 33.00,7.50 L 34.00,7.50 L 35.00,7.50 L 35.50,8.00 L 35.50,9.00 L 35.50,10.00 L 35.50,11.00 L 35.00,11.50 Z" fill="rgb(213,246,207)" stroke="none" /><path d="M 59.00,11.50 L 58.00,11.50 L 57.00,11.50 L 56.00,11.50 L 55.00,11.50 L 54.00,11.50 L 53.50,11.00 L 53.50,10.00 L 53.50,9.00 L 53.50,8.00 L 54.00,7.50 L 55.00,7.50 L 56.00,7.50 L 57.00,7.50 L 58.00,7.50 L 59.00,7.50 L 59.50,8.00 L 59.50,9.00 L 59.50,10.00 L 59.50,11.00 L 59.00,11.50 Z" fill="rgb(192,192,192)" stroke="none" /><path d="M 50.00,13.50 L 49.00,13.50 L 48.00,13.50 L 47.50,13.00 L 47.50,12.00 L 47.50,11.00 L 47.50,10.00 L 47.50,9.00 L 48.00,8.50 L 49.00,8.50 L 50.00,8.50 L 51.00,8.50 L 52.00,8.50 L 53.00,8.50 L 53.50,9.00 L 53.50,10.00 L 53.50,11.00 L 53.50,12.00 L 53.00,12.50 L 52.00,12.50 L 51.00,12.50 L 50.50,13.00 L 50.00,13.50 Z" fill="rgb(192,192,192)" stroke="none" /><path d="M 47.00,14.50 L 46.00,14.50 L 45.00,14.50 L 44.00,14.50 L 43.50,14.00 L 43.50,13.00 L 43.50,12.00 L 43.50,11.00 L 43.50,10.00 L 44.00,9.50 L 45.00,9.50 L 46.00,9.50 L 47.00,9.50 L 47.50,10.00 L 47.50,11.00 L 47.50,12.00 L 47.50,13.00 L 47.50,14.00 L 47.00,14.50 Z" fill="rgb(128,128,128)" stroke="none" /><path d="M 63.00,13.50 L 62.00,13.50 L 61.00,13.50 L 60.00,13.50 L 59.50,13.00 L 59.50,12.00 L 59.50,11.00 L 59.50,10.00 L 60.00,9.50 L 61.00,9.50 L 62.00,9.50 L 63.00,9.50 Z" fill="rgb(128,128,128)" stroke="none" /><path d="M 0.00,11.50 L 1.00,11.50 L 2.00,11.50 L 3.00,11.50 L 4.00,11.50 L 5.00,11.50 L 6.00,11.50 L 6.50,12.00 L 6.00,12.50 L 5.50,13.00 L 5.50,14.00 L 5.50,15.00 L 5.00,15.50 L 4.00,15.50 L 3.00,15.50 L 2.00,15.50 L 1.00,15.50 L 0.00,15.50 Z" fill="rgb(234,237,52)" stroke="none" /><path d="M 11.00,17.50 L 10.00,17.50 L 9.00,17.50 L 8.00,17.50 L 7.50,17.00 L 7.50,16.00 L 7.00,15.50 L 6.00,15.50 L 5.50,15.00 L 5.50,14.00 L 5.50,13.00 L 6.00,12.50 L 6.50,12.00 L 7.00,11.50 L 8.00,11.50 L 9.00,11.50 L 10.00,11.50 L 10.50,12.00 L 10.50,13.00 L 10.50,14.00 L 11.00,14.50 L 11.50,15.00 L 11.50,16.00 L 11.50,17.00 L 11.00,17.50 Z" fill="rgb(234,237,52)" stroke="none" /><path d="M 15.00,15.50 L 14.00,15.50 L 13.00,15.50 L 12.00,15.50 L 11.50,15.00 L 11.00,14.50 L 10.50,14.00 L 10.50,13.00 L 10.50,12.00 L 11.00,11.50 L 12.00,11.50 L 13.00,11.50 L 14.00,11.50 L 15.00,11.50 L 15.50,12.00 L 15.50,13.00 L 15.50,14.00 L 15.50,15.00 L 15.00,15.50 Z" fill="rgb(234,237,52)" stroke="none" /><path d="M 22.00,15.50 L 21.00,15.50 L 20.00,15.50 L 19.00,15.50 L 18.00,15.50 L 17.00,15.50 L 16.00,15.50 L 15.50,15.00 L 15.50,14.00 L 15.50,13.00 L 15.50,12.00 L 16.00,11.50 L 17.00,11.50 L 18.00,11.50 L 18.50,12.00 L 19.00,12.50 L 20.00,12.50 L 20.50,13.00 L 21.00,13.50 L 21.50,14.00 L 22.00,14.50 L 22.50,15.00 L 22.00,15.50 Z" fill="rgb(58,250,13)" stroke="none" /><path d="M 43.00,15.50 L 42.00,15.50 L 41.00,15.50 L 40.00,15.50 L 39.00,15.50 L 38.00,15.50 L 37.00,15.50 L 36.00,15.50 L 35.50,15.00 L 35.50,14.00 L 35.50,13.00 L 35.50,12.00 L 36.00,11.50 L 37.00,11.50 L 38.00,11.50 L 39.00,11.50 L 40.00,11.50 L 41.00,11.50 L 42.00,11.50 L 43.00,11.50 L 43.50,12.00 L 43.50,13.00 L 43.50,14.00 L 43.50,15.00 L 43.00,15.50 Z" fill="rgb(255,0,255)" stroke="none" /><path d="M 59.00,15.50 L 58.00,15.50 L 57.00,15.50 L 56.00,15.50 L 55.00,15.50 L 54.50,15.00 L 54.00,14.50 L 53.50,14.00 L 53.50,13.00 L 53.50,12.00 L 54.00,11.50 L 55.00,11.50 L 56.00,11.50 L 57.00,11.50 L 58.00,11.50 L 59.00,11.50 L 59.50,12.00 L 59.50,13.00 L 59.50,14.00 L 59.50,15.00 L 59.00,15.50 Z" fill="rgb(192,192,192)" stroke="none" /><path d="M 53.00,17.50 L 52.00,17.50 L 51.50,17.00 L 51.00,16.50 L 50.00,16.50 L 49.00,16.50 L 48.50,16.00 L 48.00,15.50 L 47.50,15.00 L 47.50,14.00 L 48.00,13.50 L 49.00,13.50 L 50.00,13.50 L 50.50,13.00 L 51.00,12.50 L 52.00,12.50 L 53.00,12.50 L 53.50,13.00 L 53.50,14.00 L 54.00,14.50 L 54.50,15.00 L 54.50,16.00 L 54.00,16.50 L 53.50,17.00 L 53.00,17.50 Z" fill="rgb(192,192,192)" stroke="none" /><path d="M 63.00,18.50 L 62.00,18.50 L 61.00,18.50 L 60.00,18.50 L 59.50,18.00 L 59.50,17.00 L 59.50,16.00 L 59.50,15.00 L 59.50,14.00 L 60.00,13.50 L 61.00,13.50 L 62.00,13.50 L 63.00,13.50 Z" fill="rgb(128,128,128)" stroke="none" /><path d="M 27.00,23.50 L 26.00,23.50 L 25.00,23.50 L 24.00,23.50 L 23.50,23.00 L 23.50,22.00 L 23.50,21.00 L 23.50,20.00 L 23.00,19.50 L 22.00,19.50 L 21.00,19.50 L 20.00,19.50 L 19.50,19.00 L 19.50,18.00 L 19.50,17.00 L 19.50,16.00 L 20.00,15.50 L 21.00,15.50 L 22.00,15.50 L 22.50,15.00 L 23.00,14.50 L 24.00,14.50 L 25.00,14.50 L 26.00,14.50 L 26.50,15.00 L 27.00,15.50 L 28.00,15.50 L 28.50,16.00 L 29.00,16.50 L 29.50,17.00 L 30.00,17.50 L 30.50,18.00 L 31.00,18.50 L 31.50,19.00 L 31.00,19.50 L 30.00,19.50 L 29.00,19.50 L 28.00,19.50 L 27.50,20.00 L 27.50,21.00 L 27.50,22.00 L 27.50,23.00 L 27.00,23.50 Z" fill="rgb(58,250,13)" stroke="none" /><path d="M 47.00,20.50 L 46.00,20.50 L 45.00,20.50 L 44.00,20.50 L 43.50,20.00 L 43.50,19.00 L 43.50,18.00 L 43.50,17.00 L 43.50,16.00 L 43.50,15.00 L 44.00,14.50 L 45.00,14.50 L 46.00,14.50 L 47.00,14.50 L 47.50,15.00 L 47.50,16.00 L 47.50,17.00 L 47.50,18.00 L 47.50,19.00 L 47.50,20.00 L 47.00,20.50 Z" fill="rgb(128,128,128)" stroke="none" /><path d="M 19.00,19.50 L 18.00,19.50 L 17.00,19.50 L 16.00,19.50 L 15.50,19.00 L 15.50,18.00 L 15.50,17.00 L 15.50,16.00 L 16.00,15.50 L 17.00,15.50 L 18.00,15.50 L 19.00,15.50 L 19.50,16.00 L 19.50,17.00 L 19.50,18.00 L 19.50,19.00 L 19.00,19.50 Z" fill="rgb(213,246,207)" stroke="none" /><path d="M 35.00,19.50 L 34.00,19.50 L 33.00,19.50 L 32.00,19.50 L 31.50,19.00 L 31.50,18.00 L 31.50,17.00 L 31.50,16.00 L 32.00,15.50 L 33.00,15.50 L 34.00,15.50 L 35.00,15.50 L 35.50,16.00 L 35.50,17.00 L 35.50,18.00 L 35.50,19.00 L 35.00,19.50 Z" fill="rgb(213,246,207)" stroke="none" /><path d="M 51.00,20.50 L 50.00,20.50 L 49.00,20.50 L 48.00,20.50 L 47.50,20.00 L 47.50,19.00 L 47.50,18.00 L 47.50,17.00 L 47.50,16.00 L 48.00,15.50 L 48.50,16.00 L 49.00,16.50 L 50.00,16.50 L 51.00,16.50 L 51.50,17.00 L 52.00,17.50 L 53.00,17.50 L 53.50,18.00 L 53.50,19.00 L 53.00,19.50 L 52.00,19.50 L 51.50,20.00 L 51.00,20.50 Z" fill="rgb(192,192,192)" stroke="none" /><path d="M 59.00,20.50 L 58.00,20.50 L 57.00,20.50 L 56.00,20.50 L 55.50,20.00 L 55.00,19.50 L 54.00,19.50 L 53.50,19.00 L 53.50,18.00 L 53.50,17.00 L 54.00,16.50 L 54.50,16.00 L 55.00,15.50 L 56.00,15.50 L 57.00,15.50 L 58.00,15.50 L 59.00,15.50 L 59.50,16.00 L 59.50,17.00 L 59.50,18.00 L 59.50,19.00 L 59.50,20.00 L 59.00,20.50 Z" fill="rgb(192,192,192)" stroke="none" /><path d="M 11.00,22.50 L 10.00,22.50 L 9.00,22.50 L 8.00,22.50 L 7.50,22.00 L 7.50,21.00 L 7.50,20.00 L 7.50,19.00 L 7.50,18.00 L 8.00,17.50 L 9.00,17.50 L 10.00,17.50 L 11.00,17.50 L 11.50,18.00 L 11.50,19.00 L 11.50,20.00 L 11.50,21.00 L 11.50,22.00 L 11.00,22.50 Z" fill="rgb(234,237,52)" stroke="none" /><path d="M 63.00,24.50 L 62.00,24.50 L 61.00,24.50 L 60.00,24.50 L 59.50,24.00 L 59.50,23.00 L 59.50,22.00 L 59.50,21.00 L 59.50,20.00 L 59.50,19.00 L 60.00,18.50 L 61.00,18.50 L 62.00,18.50 L 63.00,18.50 Z" fill="rgb(128,128,128)" stroke="none" /><path d="M 23.00,23.50 L 22.00,23.50 L 21.00,23.50 L 20.00,23.50 L 19.50,23.00 L 19.50,22.00 L 19.50,21.00 L 19.50,20.00 L 20.00,19.50 L 21.00,19.50 L 22.00,19.50 L 23.00,19.50 L 23.50,20.00 L 23.50,21.00 L 23.50,22.00 L 23.50,23.00 L 23.00,23.50 Z" fill="rgb(213,246,207)" stroke="none" /><path d="M 31.00,23.50 L 30.00,23.50 L 29.00,23.50 L 28.00,23.50 L 27.50,23.00 L 27.50,22.00 L 27.50,21.00 L 27.50,20.00 L 28.00,19.50 L 29.00,19.50 L 30.00,19.50 L 31.00,19.50 L 31.50,20.00 L 31.50,21.00 L 31.50,22.00 L 31.50,23.00 L 31.00,23.50 Z" fill="rgb(213,246,207)" stroke="none" /><path d="M 55.00,23.50 L 54.00,23.50 L 53.00,23.50 L 52.00,23.50 L 51.50,23.00 L 51.50,22.00 L 51.50,21.00 L 51.50,20.00 L 52.00,19.50 L 53.00,19.50 L 54.00,19.50 L 55.00,19.50 L 55.50,20.00 L 55.50,21.00 L 55.50,22.00 L 55.50,23.00 L 55.00,23.50 Z" fill="rgb(0,0,0)" stroke="none" /><path d="M 47.00,26.50 L 46.00,26.50 L 45.00,26.50 L 44.00,26.50 L 43.50,26.00 L 43.50,25.00 L 43.50,24.00 L 43.50,23.00 L 43.50,22.00 L 43.50,21.00 L 44.00,20.50 L 45.00,20.50 L 46.00,20.50 L 47.00,20.50 L 47.50,21.00 L 47.50,22.00 L 47.50,23.00 L 47.50,24.00 L 47.50,25.00 L 47.50,26.00 L 47.00,26.50 Z" fill="rgb(128,128,128)" stroke="none" /><path d="M 51.00,24.50 L 50.00,24.50 L 49.00,24.50 L 48.00,24.50 L 47.50,24.00 L 47.50,23.00 L 47.50,22.00 L 47.50,21.00 L 48.00,20.50 L 49.00,20.50 L 50.00,20.50 L 51.00,20.50 L 51.50,21.00 L 51.50,22.00 L 51.50,23.00 L 51.50,24.00 L 51.00,24.50 Z" fill="rgb(192,192,192)" stroke="none" /><path d="M 59.00,25.50 L 58.00,25.50 L 57.00,25.50 L 56.50,25.00 L 56.00,24.50 L 55.50,24.00 L 55.50,23.00 L 55.50,22.00 L 55.50,21.00 L 56.00,20.50 L 57.00,20.50 L 58.00,20.50 L 59.00,20.50 L 59.50,21.00 L 59.50,22.00 L 59.50,23.00 L 59.50,24.00 L 59.50,25.00 L 59.00,25.50 Z" fill="rgb(192,192,192)" stroke="none" /><path d="M 11.00,25.50 L 10.00,25.50 L 9.00,25.50 L 8.00,25.50 L 7.50,25.00 L 7.50,24.00 L 7.50,23.00 L 8.00,22.50 L 9.00,22.50 L 10.00,22.50 L 11.00,22.50 L 11.50,23.00 L 11.50,24.00 L 11.50,25.00 L 11.00,25.50 Z" fill="rgb(234,237,52)" stroke="none" /><path d="M 55.00,27.50 L 54.00,27.50 L 53.00,27.50 L 52.00,27.50 L 51.50,27.00 L 51.50,26.00 L 51.50,25.00 L 51.50,24.00 L 52.00,23.50 L 53.00,23.50 L 54.00,23.50 L 55.00,23.50 L 55.50,24.00 L 56.00,24.50 L 56.50,25.00 L 56.50,26.00 L 56.00,26.50 L 55.50,27.00 L 55.00,27.50 Z" fill="rgb(192,192,192)" stroke="none" /><path d="M 51.00,29.50 L 50.00,29.50 L 49.00,29.50 L 48.00,29.50 L 47.50,29.00 L 47.50,28.00 L 47.50,27.00 L 47.50,26.00 L 47.50,25.00 L 48.00,24.50 L 49.00,24.50 L 50.00,24.50 L 51.00,24.50 L 51.50,25.00 L 51.50,26.00 L 51.50,27.00 L 51.50,28.00 L 51.50,29.00 L 51.00,29.50 Z" fill="rgb(192,192,192)" stroke="none" /><path d="M 63.00,30.50 L 62.00,30.50 L 61.00,30.50 L 60.00,30.50 L 59.50,30.00 L 59.50,29.00 L 59.50,28.00 L 59.50,27.00 L 59.50,26.00 L 59.50,25.00 L 60.00,24.50 L 61.00,24.50 L 62.00,24.50 L 63.00,24.50 Z" fill="rgb(128,128,128)" stroke="none" /><path d="M 11.00,29.50 L 10.00,29.50 L 9.00,29.50 L 8.00,29.50 L 7.50,29.00 L 7.50,28.00 L 7.50,27.00 L 7.50,26.00 L 8.00,25.50 L 9.00,25.50 L 10.00,25.50 L 11.00,25.50 L 11.50,26.00 L 11.50,27.00 L 11.50,28.00 L 11.50,29.00 L 11.00,29.50 Z" fill="rgb(234,237,52)" stroke="none" /><path d="M 59.00,31.50 L 58.00,31.50 L 57.00,31.50 L 56.00,31.50 L 55.50,31.00 L 55.50,30.00 L 55.50,29.00 L 55.50,28.00 L 55.50,27.00 L 56.00,26.50 L 56.50,26.00 L 57.00,25.50 L 58.00,25.50 L 59.00,25.50 L 59.50,26.00 L 59.50,27.00 L 59.50,28.00 L 59.50,29.00 L 59.50,30.00 L 59.50,31.00 L 59.00,31.50 Z" fill="rgb(192,192,192)" stroke="none" /><path d="M 47.00,32.50 L 46.00,32.50 L 45.00,32.50 L 44.00,32.50 L 43.50,32.00 L 43.50,31.00 L 43.50,30.00 L 43.50,29.00 L 43.50,28.00 L 43.50,27.00 L 44.00,26.50 L 45.00,26.50 L 46.00,26.50 L 47.00,26.50 L 47.50,27.00 L 47.50,28.00 L 47.50,29.00 L 47.50,30.00 L 47.50,31.00 L 47.50,32.00 L 47.00,32.50 Z" fill="rgb(128,128,128)" stroke="none" /><path d="M 55.00,31.50 L 54.00,31.50 L 53.00,31.50 L 52.00,31.50 L 51.50,31.00 L 51.50,30.00 L 51.50,29.00 L 51.50,28.00 L 52.00,27.50 L 53.00,27.50 L 54.00,27.50 L 55.00,27.50 L 55.50,28.00 L 55.50,29.00 L 55.50,30.00 L 55.50,31.00 L 55.00,31.50 Z" fill="rgb(0,0,0)" stroke="none" /><path d="M 11.00,34.50 L 10.00,34.50 L 9.00,34.50 L 8.00,34.50 L 7.50,34.00 L 7.50,33.00 L 7.50,32.00 L 7.50,31.00 L 7.50,30.00 L 8.00,29.50 L 9.00,29.50 L 10.00,29.50 L 11.00,29.50 L 11.50,30.00 L 11.50,31.00 L 11.50,32.00 L 11.50,33.00 L 11.50,34.00 L 11.00,34.50 Z" fill="rgb(234,237,52)" stroke="none" /><path d="M 51.00,34.50 L 50.00,34.50 L 49.00,34.50 L 48.00,34.50 L 47.50,34.00 L 47.50,33.00 L 47.50,32.00 L 47.50,31.00 L 47.50,30.00 L 48.00,29.50 L 49.00,29.50 L 50.00,29.50 L 51.00,29.50 L 51.50,30.00 L 51.50,31.00 L 52.00,31.50 L 53.00,31.50 L 53.50,32.00 L 53.50,33.00 L 53.00,33.50 L 52.00,33.50 L 51.50,34.00 L 51.00,34.50 Z" fill="rgb(192,192,192)" stroke="none" /><path d="M 63.00,35.50 L 62.00,35.50 L 61.00,35.50 L 60.00,35.50 L 59.50,35.00 L 59.50,34.00 L 59.50,33.00 L 59.50,32.00 L 59.50,31.00 L 60.00,30.50 L 61.00,30.50 L 62.00,30.50 L 63.00,30.50 Z" fill="rgb(128,128,128)" stroke="none" /><path d="M 19.00,36.50 L 18.00,36.50 L 17.00,36.50 L 16.00,36.50 L 15.50,36.00 L 15.50,35.00 L 15.50,34.00 L 15.50,33.00 L 15.50,32.00 L 16.00,31.50 L 17.00,31.50 L 18.00,31.50 L 19.00,31.50 L 20.00,31.50 L 20.50,32.00 L 20.50,33.00 L 20.50,34.00 L 20.50,35.00 L 20.00,35.50 L 19.50,36.00 L 19.00,36.50 Z" fill="rgb(128,128,128)" stroke="none" /><path d="M 25.00,35.50 L 24.00,35.50 L 23.00,35.50 L 22.00,35.50 L 21.00,35.50 L 20.50,35.00 L 20.50,34.00 L 20.50,33.00 L 20.50,32.00 L 21.00,31.50 L 22.00,31.50 L 23.00,31.50 L 24.00,31.50 L 25.00,31.50 L 25.50,32.00 L 25.50,33.00 L 25.50,34.00 L 25.50,35.00 L 25.00,35.50 Z" fill="rgb(128,128,128)" stroke="none" /><path d="M 29.00,35.50 L 28.00,35.50 L 27.00,35.50 L 26.00,35.50 L 25.50,35.00 L 25.50,34.00 L 25.50,33.00 L 25.50,32.00 L 26.00,31.50 L 27.00,31.50 L 28.00,31.50 L 29.00,31.50 L 29.50,32.00 L 29.50,33.00 L 29.50,34.00 L 29.50,35.00 L 29.00,35.50 Z" fill="rgb(128,128,128)" stroke="none" /><path d="M 32.00,35.50 L 31.00,35.50 L 30.00,35.50 L 29.50,35.00 L 29.50,34.00 L 29.50,33.00 L 29.50,32.00 L 30.00,31.50 L 31.00,31.50 L 32.00,31.50 L 33.00,31.50 L 33.50,32.00 L 33.50,33.00 L 33.00,33.50 L 32.50,34.00 L 32.50,35.00 L 32.00,35.50 Z" fill="rgb(128,128,128)" stroke="none" /><path d="M 35.00,37.50 L 34.00,37.50 L 33.00,37.50 L 32.00,37.50 L 31.50,37.00 L 31.50,36.00 L 32.00,35.50 L 32.50,35.00 L 32.50,34.00 L 33.00,33.50 L 33.50,33.00 L 33.50,32.00 L 34.00,31.50 L 35.00,31.50 L 35.50,32.00 L 35.50,33.00 L 35.50,34.00 L 35.50,35.00 L 35.50,36.00 L 35.50,37.00 L 35.00,37.50 Z" fill="rgb(128,128,128)" stroke="none" /><path d="M 59.00,37.50 L 58.00,37.50 L 57.00,37.50 L 56.00,37.50 L 55.00,37.50 L 54.50,37.00 L 54.00,36.50 L 53.50,36.00 L 53.50,35.00 L 53.50,34.00 L 53.50,33.00 L 53.50,32.00 L 54.00,31.50 L 55.00,31.50 L 56.00,31.50 L 57.00,31.50 L 58.00,31.50 L 59.00,31.50 L 59.50,32.00 L 59.50,33.00 L 59.50,34.00 L 59.50,35.00 L 59.50,36.00 L 59.50,37.00 L 59.00,37.50 Z" fill="rgb(192,192,192)" stroke="none" /><path d="M 47.00,37.50 L 46.00,37.50 L 45.00,37.50 L 44.00,37.50 L 43.50,37.00 L 43.50,36.00 L 43.50,35.00 L 43.50,34.00 L 43.50,33.00 L 44.00,32.50 L 45.00,32.50 L 46.00,32.50 L 47.00,32.50 L 47.50,33.00 L 47.50,34.00 L 47.50,35.00 L 47.50,36.00 L 47.50,37.00 L 47.00,37.50 Z" fill="rgb(128,128,128)" stroke="none" /><path d="M 53.00,38.50 L 52.00,38.50 L 51.00,38.50 L 50.00,38.50 L 49.00,38.50 L 48.00,38.50 L 47.50,38.00 L 47.50,37.00 L 47.50,36.00 L 47.50,35.00 L 48.00,34.50 L 49.00,34.50 L 50.00,34.50 L 51.00,34.50 L 51.50,34.00 L 52.00,33.50 L 53.00,33.50 L 53.50,34.00 L 53.50,35.00 L 53.50,36.00 L 54.00,36.50 L 54.50,37.00 L 54.00,37.50 L 53.50,38.00 L 53.00,38.50 Z" fill="rgb(192,192,192)" stroke="none" /><path d="M 11.00,39.50 L 10.00,39.50 L 9.00,39.50 L 8.00,39.50 L 7.50,39.00 L 7.50,38.00 L 7.50,37.00 L 7.50,36.00 L 7.50,35.00 L 8.00,34.50 L 9.00,34.50 L 10.00,34.50 L 11.00,34.50 L 11.50,35.00 L 11.50,36.00 L 11.50,37.00 L 11.50,38.00 L 11.50,39.00 L 11.00,39.50 Z" fill="rgb(234,237,52)" stroke="none" /><path d="M 31.00,39.50 L 30.00,39.50 L 29.00,39.50 L 28.00,39.50 L 27.50,39.00 L 27.50,38.00 L 27.50,37.00 L 27.50,36.00 L 28.00,35.50 L 29.00,35.50 L 30.00,35.50 L 31.00,35.50 L 31.50,36.00 L 31.50,37.00 L 31.50,38.00 L 31.50,39.00 L 31.00,39.50 Z" fill="rgb(192,192,192)" stroke="none" /><path d="M 63.00,39.50 L 62.00,39.50 L 61.00,39.50 L 60.00,39.50 L 59.50,39.00 L 59.50,38.00 L 59.50,37.00 L 59.50,36.00 L 60.00,35.50 L 61.00,35.50 L 62.00,35.50 L 63.00,35.50 Z" fill="rgb(128,128,128)" stroke="none" /><path d="M 19.00,40.50 L 18.00,40.50 L 17.00,40.50 L 16.00,40.50 L 15.50,40.00 L 15.50,39.00 L 15.50,38.00 L 15.50,37.00 L 16.00,36.50 L 17.00,36.50 L 18.00,36.50 L 19.00,36.50 L 19.50,37.00 L 19.50,38.00 L 19.50,39.00 L 19.50,40.00 L 19.00,40.50 Z" fill="rgb(128,128,128)" stroke="none" /><path d="M 35.00,43.50 L 34.00,43.50 L 33.00,43.50 L 32.00,43.50 L 31.50,43.00 L 31.50,42.00 L 31.50,41.00 L 31.50,40.00 L 31.50,39.00 L 31.50,38.00 L 32.00,37.50 L 33.00,37.50 L 34.00,37.50 L 35.00,37.50 L 35.50,38.00 L 35.50,39.00 L 35.50,40.00 L 35.50,41.00 L 35.50,42.00 L 35.50,43.00 L 35.00,43.50 Z" fill="rgb(128,128,128)" stroke="none" /><path d="M 47.00,42.50 L 46.00,42.50 L 45.00,42.50 L 44.00,42.50 L 43.50,42.00 L 43.50,41.00 L 43.50,40.00 L 43.50,39.00 L 43.50,38.00 L 44.00,37.50 L 45.00,37.50 L 46.00,37.50 L 47.00,37.50 L 47.50,38.00 L 47.50,39.00 L 47.50,40.00 L 47.50,41.00 L 47.50,42.00 L 47.00,42.50 Z" fill="rgb(128,128,128)" stroke="none" /><path d="M 58.00,42.50 L 57.00,42.50 L 56.00,42.50 L 55.50,42.00 L 55.00,41.50 L 54.00,41.50 L 53.50,41.00 L 53.50,40.00 L 53.50,39.00 L 53.50,38.00 L 54.00,37.50 L 55.00,37.50 L 56.00,37.50 L 57.00,37.50 L 58.00,37.50 L 59.00,37.50 L 59.50,38.00 L 59.50,39.00 L 59.50,40.00 L 59.50,41.00 L 59.00,41.50 L 58.50,42.00 L 58.00,42.50 Z" fill="rgb(192,192,192)" stroke="none" /><path d="M 52.00,42.50 L 51.00,42.50 L 50.50,42.00 L 50.00,41.50 L 49.00,41.50 L 48.00,41.50 L 47.50,41.00 L 47.50,40.00 L 47.50,39.00 L 48.00,38.50 L 49.00,38.50 L 50.00,38.50 L 51.00,38.50 L 52.00,38.50 L 53.00,38.50 L 53.50,39.00 L 53.50,40.00 L 53.50,41.00 L 53.00,41.50 L 52.50,42.00 L 52.00,42.50 Z" fill="rgb(192,192,192)" stroke="none" /><path d="M 0.00,39.50 L 1.00,39.50 L 2.00,39.50 L 3.00,39.50 L 4.00,39.50 L 5.00,39.50 L 5.50,40.00 L 5.50,41.00 L 5.50,42.00 L 5.50,43.00 L 5.00,43.50 L 4.00,43.50 L 3.00,43.50 L 2.00,43.50 L 1.00,43.50 L 0.00,43.50 Z" fill="rgb(0,0,255)" stroke="none" /><path d="M 11.00,43.50 L 10.00,43.50 L 9.00,43.50 L 8.00,43.50 L 7.00,43.50 L 6.00,43.50 L 5.50,43.00 L 5.50,42.00 L 5.50,41.00 L 5.50,40.00 L 6.00,39.50 L 7.00,39.50 L 8.00,39.50 L 9.00,39.50 L 10.00,39.50 L 11.00,39.50 L 11.50,40.00 L 11.50,41.00 L 11.50,42.00 L 11.50,43.00 L 11.00,43.50 Z" fill="rgb(0,0,255)" stroke="none" /><path d="M 15.00,43.50 L 14.00,43.50 L 13.00,43.50 L 12.00,43.50 L 11.50,43.00 L 11.50,42.00 L 11.50,41.00 L 11.50,40.00 L 12.00,39.50 L 13.00,39.50 L 14.00,39.50 L 15.00,39.50 L 15.50,40.00 L 15.50,41.00 L 15.50,42.00 L 15.50,43.00 L 15.00,43.50 Z" fill="rgb(0,0,255)" stroke="none" /><path d="M 27.00,43.50 L 26.00,43.50 L 25.00,43.50 L 24.00,43.50 L 23.50,43.00 L 23.50,42.00 L 23.50,41.00 L 23.50,40.00 L 24.00,39.50 L 25.00,39.50 L 26.00,39.50 L 27.00,39.50 L 27.50,40.00 L 27.50,41.00 L 27.50,42.00 L 27.50,43.00 L 27.00,43.50 Z" fill="rgb(192,192,192)" stroke="none" /><path d="M 43.00,43.50 L 42.00,43.50 L 41.00,43.50 L 40.00,43.50 L 39.00,43.50 L 38.00,43.50 L 37.00,43.50 L 36.00,43.50 L 35.50,43.00 L 35.50,42.00 L 35.50,41.00 L 35.50,40.00 L 36.00,39.50 L 37.00,39.50 L 38.00,39.50 L 39.00,39.50 L 40.00,39.50 L 41.00,39.50 L 42.00,39.50 L 43.00,39.50 L 43.50,40.00 L 43.50,41.00 L 43.50,42.00 L 43.50,43.00 L 43.00,43.50 Z" fill="rgb(0,0,255)" stroke="none" /><path d="M 63.00,44.50 L 62.00,44.50 L 61.00,44.50 L 60.00,44.50 L 59.50,44.00 L 59.50,43.00 L 59.50,42.00 L 59.50,41.00 L 59.50,40.00 L 60.00,39.50 L 61.00,39.50 L 62.00,39.50 L 63.00,39.50 Z" fill="rgb(128,128,128)" stroke="none" /><path d="M 19.00,44.50 L 18.00,44.50 L 17.00,44.50 L 16.00,44.50 L 15.50,44.00 L 15.50,43.00 L 15.50,42.00 L 15.50,41.00 L 16.00,40.50 L 17.00,40.50 L 18.00,40.50 L 19.00,40.50 L 19.50,41.00 L 19.50,42.00 L 19.50,43.00 L 19.50,44.00 L 19.00,44.50 Z" fill="rgb(128,128,128)" stroke="none" /><path d="M 48.00,46.50 L 47.50,46.00 L 47.50,45.00 L 47.50,44.00 L 47.50,43.00 L 47.50,42.00 L 48.00,41.50 L 49.00,41.50 L 50.00,41.50 L 50.50,42.00 L 51.00,42.50 L 51.50,43.00 L 51.50,44.00 L 51.00,44.50 L 50.50,45.00 L 50.00,45.50 L 49.00,45.50 L 48.50,46.00 L 48.00,46.50 Z" fill="rgb(192,192,192)" stroke="none" /><path d="M 55.00,47.50 L 54.50,47.00 L 54.00,46.50 L 53.50,46.00 L 53.00,45.50 L 52.50,45.00 L 52.00,44.50 L 51.50,44.00 L 51.50,43.00 L 52.00,42.50 L 52.50,42.00 L 53.00,41.50 L 54.00,41.50 L 55.00,41.50 L 55.50,42.00 L 56.00,42.50 L 56.50,43.00 L 56.50,44.00 L 56.00,44.50 L 55.50,45.00 L 55.50,46.00 L 55.50,47.00 L 55.00,47.50 Z" fill="rgb(192,192,192)" stroke="none" /><path d="M 59.00,47.50 L 58.00,47.50 L 57.00,47.50 L 56.00,47.50 L 55.50,47.00 L 55.50,46.00 L 55.50,45.00 L 56.00,44.50 L 56.50,44.00 L 56.50,43.00 L 57.00,42.50 L 58.00,42.50 L 58.50,42.00 L 59.00,41.50 L 59.50,42.00 L 59.50,43.00 L 59.50,44.00 L 59.50,45.00 L 59.50,46.00 L 59.50,47.00 L 59.00,47.50 Z" fill="rgb(192,192,192)" stroke="none" /><path d="M 47.00,45.50 L 46.00,45.50 L 45.00,45.50 L 44.00,45.50 L 43.50,45.00 L 43.50,44.00 L 43.50,43.00 L 44.00,42.50 L 45.00,42.50 L 46.00,42.50 L 47.00,42.50 L 47.50,43.00 L 47.50,44.00 L 47.50,45.00 L 47.00,45.50 Z" fill="rgb(128,128,128)" stroke="none" /><path d="M 23.00,47.50 L 22.00,47.50 L 21.00,47.50 L 20.00,47.50 L 19.50,47.00 L 19.50,46.00 L 19.50,45.00 L 19.50,44.00 L 20.00,43.50 L 21.00,43.50 L 22.00,43.50 L 23.00,43.50 L 23.50,44.00 L 23.50,45.00 L 23.50,46.00 L 23.50,47.00 L 23.00,47.50 Z" fill="rgb(192,192,192)" stroke="none" /><path d="M 35.00,51.50 L 34.00,51.50 L 33.00,51.50 L 32.50,51.00 L 32.00,50.50 L 31.50,50.00 L 31.50,49.00 L 31.00,48.50 L 30.50,48.00 L 31.00,47.50 L 31.50,47.00 L 31.50,46.00 L 31.50,45.00 L 31.50,44.00 L 32.00,43.50 L 33.00,43.50 L 34.00,43.50 L 35.00,43.50 L 35.50,44.00 L 35.50,45.00 L 35.50,46.00 L 35.50,47.00 L 35.50,48.00 L 35.50,49.00 L 35.50,50.00 L 35.50,51.00 L 35.00,51.50 Z" fill="rgb(128,128,128)" stroke="none" /><path d="M 20.00,48.50 L 19.00,48.50 L 18.00,48.50 L 17.00,48.50 L 16.00,48.50 L 15.50,48.00 L 15.50,47.00 L 15.50,46.00 L 15.50,45.00 L 16.00,44.50 L 17.00,44.50 L 18.00,44.50 L 19.00,44.50 L 19.50,45.00 L 19.50,46.00 L 19.50,47.00 L 20.00,47.50 L 20.50,48.00 L 20.00,48.50 Z" fill="rgb(128,128,128)" stroke="none" /><path d="M 54.00,47.50 L 53.00,47.50 L 52.00,47.50 L 51.00,47.50 L 50.00,47.50 L 49.00,47.50 L 48.00,47.50 L 47.50,47.00 L 48.00,46.50 L 48.50,46.00 L 49.00,45.50 L 50.00,45.50 L 50.50,45.00 L 51.00,44.50 L 52.00,44.50 L 52.50,45.00 L 53.00,45.50 L 53.50,46.00 L 54.00,46.50 L 54.50,47.00 L 54.00,47.50 Z" fill="rgb(192,192,192)" stroke="none" /><path d="M 63.00,47.50 L 62.50,48.00 L 62.00,48.50 L 61.00,48.50 L 60.50,48.00 L 60.00,47.50 L 59.50,47.00 L 59.50,46.00 L 59.50,45.00 L 60.00,44.50 L 61.00,44.50 L 62.00,44.50 L 63.00,44.50 Z" fill="rgb(128,128,128)" stroke="none" /><path d="M 47.00,48.50 L 46.00,48.50 L 45.00,48.50 L 44.00,48.50 L 43.50,48.00 L 43.50,47.00 L 43.50,46.00 L 44.00,45.50 L 45.00,45.50 L 46.00,45.50 L 47.00,45.50 L 47.50,46.00 L 47.50,47.00 L 47.50,48.00 L 47.00,48.50 Z" fill="rgb(128,128,128)" stroke="none" /><path d="M 25.00,51.50 L 24.00,51.50 L 23.00,51.50 L 22.00,51.50 L 21.00,51.50 L 20.50,51.00 L 20.50,50.00 L 20.50,49.00 L 20.50,48.00 L 21.00,47.50 L 22.00,47.50 L 23.00,47.50 L 24.00,47.50 L 25.00,47.50 L 25.50,48.00 L 25.50,49.00 L 25.50,50.00 L 25.50,51.00 L 25.00,51.50 Z" fill="rgb(128,128,128)" stroke="none" /><path d="M 32.00,51.50 L 31.00,51.50 L 30.00,51.50 L 29.00,51.50 L 28.00,51.50 L 27.00,51.50 L 26.00,51.50 L 25.50,51.00 L 25.50,50.00 L 25.50,49.00 L 25.50,48.00 L 26.00,47.50 L 27.00,47.50 L 28.00,47.50 L 29.00,47.50 L 30.00,47.50 L 30.50,48.00 L 31.00,48.50 L 31.50,49.00 L 31.50,50.00 L 32.00,50.50 L 32.50,51.00 L 32.00,51.50 Z" fill="rgb(128,128,128)" stroke="none" /><path d="M 51.00,51.50 L 50.00,51.50 L 49.00,51.50 L 48.00,51.50 L 47.50,51.00 L 47.50,50.00 L 47.50,49.00 L 47.50,48.00 L 48.00,47.50 L 49.00,47.50 L 50.00,47.50 L 51.00,47.50 L 51.50,48.00 L 51.50,49.00 L 51.50,50.00 L 51.50,51.00 L 51.00,51.50 Z" fill="rgb(128,128,128)" stroke="none" /><path d="M 55.00,51.50 L 54.00,51.50 L 53.00,51.50 L 52.00,51.50 L 51.50,51.00 L 51.50,50.00 L 51.50,49.00 L 51.50,48.00 L 52.00,47.50 L 53.00,47.50 L 54.00,47.50 L 55.00,47.50 L 55.50,48.00 L 55.50,49.00 L 55.50,50.00 L 55.50,51.00 L 55.00,51.50 Z" fill="rgb(128,128,128)" stroke="none" /><path d="M 58.00,51.50 L 57.00,51.50 L 56.00,51.50 L 55.50,51.00 L 55.50,50.00 L 55.50,49.00 L 55.50,48.00 L 56.00,47.50 L 57.00,47.50 L 58.00,47.50 L 58.50,48.00 L 58.50,49.00 L 58.50,50.00 L 58.50,51.00 L 58.00,51.50 Z" fill="rgb(128,128,128)" stroke="none" /><path d="M 63.00,51.50 L 62.00,51.50 L 61.00,51.50 L 60.00,51.50 L 59.00,51.50 L 58.50,51.00 L 58.50,50.00 L 58.50,49.00 L 58.50,48.00 L 59.00,47.50 L 60.00,47.50 L 60.50,48.00 L 61.00,48.50 L 62.00,48.50 L 62.50,48.00 L 63.00,47.50 Z" fill="rgb(128,128,128)" stroke="none" /><path d="M 20.00,51.50 L 19.00,51.50 L 18.00,51.50 L 17.00,51.50 L 16.00,51.50 L 15.50,51.00 L 15.50,50.00 L 15.50,49.00 L 16.00,48.50 L 17.00,48.50 L 18.00,48.50 L 19.00,48.50 L 20.00,48.50 L 20.50,49.00 L 20.50,50.00 L 20.50,51.00 L 20.00,51.50 Z" fill="rgb(128,128,128)" stroke="none" /><path d="M 47.00,51.50 L 46.00,51.50 L 45.00,51.50 L 44.00,51.50 L 43.50,51.00 L 43.50,50.00 L 43.50,49.00 L 44.00,48.50 L 45.00,48.50 L 46.00,48.50 L 47.00,48.50 L 47.50,49.00 L 47.50,50.00 L 47.50,51.00 L 47.00,51.50 Z" fill="rgb(128,128,128)" stroke="none" /><path d="M 19.00,57.50 L 18.00,57.50 L 17.00,57.50 L 16.00,57.50 L 15.50,57.00 L 15.50,56.00 L 15.50,55.00 L 15.50,54.00 L 15.50,53.00 L 15.50,52.00 L 16.00,51.50 L 17.00,51.50 L 18.00,51.50 L 19.00,51.50 L 19.50,52.00 L 19.50,53.00 L 19.50,54.00 L 19.50,55.00 L 19.50,56.00 L 19.50,57.00 L 19.00,57.50 Z" fill="rgb(255,0,0)" stroke="none" /><path d="M 31.50,63.00 L 31.50,62.00 L 31.50,61.00 L 31.50,60.00 L 31.00,59.50 L 30.50,59.00 L 30.50,58.00 L 30.50,57.00 L 30.50,56.00 L 31.00,55.50 L 31.50,55.00 L 31.50,54.00 L 31.50,53.00 L 31.50,52.00 L 32.00,51.50 L 33.00,51.50 L 34.00,51.50 L 35.00,51.50 L 35.50,52.00 L 35.50,53.00 L 35.50,54.00 L 35.50,55.00 L 35.50,56.00 L 35.50,57.00 L 35.50,58.00 L 35.50,59.00 L 35.50,60.00 L 35.50,61.00 L 35.50,62.00 L 35.50,63.00 Z" fill="rgb(0,0,255)" stroke="none" /><path d="M 25.00,59.50 L 24.00,59.50 L 23.00,59.50 L 22.00,59.50 L 21.00,59.50 L 20.00,59.50 L 19.50,59.00 L 19.50,58.00 L 19.50,57.00 L 19.50,56.00 L 20.00,55.50 L 21.00,55.50 L 22.00,55.50 L 23.00,55.50 L 24.00,55.50 L 24.50,56.00 L 24.50,57.00 L 25.00,57.50 L 25.50,58.00 L 25.50,59.00 L 25.00,59.50 Z" fill="rgb(0,0,255)" stroke="none" /><path d="M 30.00,59.50 L 29.00,59.50 L 28.00,59.50 L 27.00,59.50 L 26.00,59.50 L 25.50,59.00 L 25.50,58.00 L 25.00,57.50 L 24.50,57.00 L 24.50,56.00 L 25.00,55.50 L 26.00,55.50 L 27.00,55.50 L 28.00,55.50 L 29.00,55.50 L 30.00,55.50 L 30.50,56.00 L 30.50,57.00 L 30.50,58.00 L 30.50,59.00 L 30.00,59.50 Z" fill="rgb(0,0,255)" stroke="none" /><path d="M 15.50,63.00 L 15.50,62.00 L 15.50,61.00 L 15.50,60.00 L 15.50,59.00 L 15.50,58.00 L 16.00,57.50 L 17.00,57.50 L 18.00,57.50 L 19.00,57.50 L 19.50,58.00 L 19.50,59.00 L 19.50,60.00 L 19.50,61.00 L 19.50,62.00 L 19.50,63.00 Z" fill="rgb(255,0,0)" stroke="none" /></svg>